Jinko-Book.ufo
<glyph name="ampersand" format="1">
  <advance width="1467"/>
  <unicode hex="0026"/>
  <outline>
    <contour>
      <point x="598" y="-23" type="curve" smooth="yes"/>
      <point x="757" y="-23"/>
      <point x="904" y="19"/>
      <point x="1038" y="113" type="curve"/>
      <point x="1081" y="73"/>
      <point x="1156" y="0"/>
      <point x="1156" y="0" type="curve"/>
      <point x="1447" y="0" type="line"/>
      <point x="1447" y="0"/>
      <point x="1200" y="235"/>
      <point x="1200" y="237" type="curve"/>
      <point x="1336" y="365"/>
      <point x="1362" y="556"/>
      <point x="1359" y="730" type="curve"/>
      <point x="1165" y="750" type="line"/>
      <point x="1171" y="663"/>
      <point x="1154" y="438"/>
      <point x="1067" y="362" type="curve"/>
      <point x="972" y="456"/>
      <point x="761" y="666"/>
      <point x="667" y="763" type="curve"/>
      <point x="979" y="915"/>
      <point x="1027" y="1043"/>
      <point x="1018" y="1191" type="curve" smooth="yes"/>
      <point x="1008" y="1354"/>
      <point x="881" y="1503"/>
      <point x="604" y="1503" type="curve" smooth="yes"/>
      <point x="252" y="1503"/>
      <point x="138" y="1319"/>
      <point x="138" y="1154" type="curve" smooth="yes"/>
      <point x="138" y="1013"/>
      <point x="253" y="903"/>
      <point x="342" y="821" type="curve"/>
      <point x="149" y="740"/>
      <point x="36" y="624"/>
      <point x="36" y="424" type="curve" smooth="yes"/>
      <point x="36" y="160"/>
      <point x="247" y="-23"/>
    </contour>
    <contour>
      <point x="624" y="160" type="curve" smooth="yes"/>
      <point x="363" y="160"/>
      <point x="252" y="280"/>
      <point x="252" y="432" type="curve" smooth="yes"/>
      <point x="252" y="574"/>
      <point x="365" y="642"/>
      <point x="456" y="682" type="curve"/>
      <point x="616" y="521"/>
      <point x="748" y="392"/>
      <point x="909" y="233" type="curve"/>
      <point x="811" y="176"/>
      <point x="759" y="160"/>
    </contour>
    <contour>
      <point x="536" y="895" type="curve"/>
      <point x="414" y="1029"/>
      <point x="356" y="1078"/>
      <point x="366" y="1175" type="curve" smooth="yes"/>
      <point x="376" y="1270"/>
      <point x="452" y="1337"/>
      <point x="587" y="1337" type="curve" smooth="yes"/>
      <point x="759" y="1337"/>
      <point x="817" y="1268"/>
      <point x="817" y="1160" type="curve" smooth="yes"/>
      <point x="817" y="1064"/>
      <point x="742" y="971"/>
    </contour>
  </outline>
</glyph>
<glyph name="parenleft" format="1">
  <advance width="636"/>
  <unicode hex="0028"/>
  <outline>
    <contour>
      <point x="386" y="-319" type="curve"/>
      <point x="610" y="-319" type="line"/>
      <point x="605" y="-300"/>
      <point x="609" y="-282"/>
      <point x="606" y="-261" type="curve"/>
      <point x="444" y="-77"/>
      <point x="276" y="200"/>
      <point x="276" y="556" type="curve" smooth="yes"/>
      <point x="276" y="908"/>
      <point x="434" y="1181"/>
      <point x="606" y="1373" type="curve"/>
      <point x="609" y="1392"/>
      <point x="605" y="1412"/>
      <point x="610" y="1431" type="curve"/>
      <point x="386" y="1431" type="line"/>
      <point x="175" y="1191"/>
      <point x="36" y="911"/>
      <point x="36" y="556" type="curve" smooth="yes"/>
      <point x="36" y="177"/>
      <point x="174" y="-80"/>
    </contour>
  </outline>
</glyph>
<glyph name="parenright" format="1">
  <advance width="635"/>
  <unicode hex="0029"/>
  <outline>
    <contour>
      <point x="28" y="-319" type="curve"/>
      <point x="252" y="-319" type="line"/>
      <point x="463" y="-79"/>
      <point x="602" y="201"/>
      <point x="602" y="556" type="curve" smooth="yes"/>
      <point x="602" y="935"/>
      <point x="464" y="1192"/>
      <point x="252" y="1431" type="curve"/>
      <point x="28" y="1431" type="line"/>
      <point x="33" y="1412"/>
      <point x="29" y="1394"/>
      <point x="32" y="1373" type="curve"/>
      <point x="194" y="1189"/>
      <point x="360" y="912"/>
      <point x="360" y="556" type="curve" smooth="yes"/>
      <point x="360" y="204"/>
      <point x="204" y="-69"/>
      <point x="32" y="-261" type="curve"/>
      <point x="29" y="-280"/>
      <point x="33" y="-300"/>
    </contour>
  </outline>
</glyph>
<glyph name="asterisk" format="1">
  <advance width="969"/>
  <unicode hex="002A"/>
  <outline>
    <contour>
      <point x="463" y="591" type="curve"/>
      <point x="518" y="591"/>
      <point x="574" y="618"/>
      <point x="588" y="670" type="curve"/>
      <point x="588" y="760"/>
      <point x="546" y="873"/>
      <point x="530" y="962" type="curve"/>
      <point x="592" y="909"/>
      <point x="660" y="817"/>
      <point x="729" y="775" type="curve" smooth="yes"/>
      <point x="750" y="763"/>
      <point x="770" y="755"/>
      <point x="792" y="753" type="curve"/>
      <point x="838" y="765"/>
      <point x="881" y="811"/>
      <point x="891" y="863" type="curve"/>
      <point x="883" y="984"/>
      <point x="679" y="989"/>
      <point x="567" y="1039" type="curve"/>
      <point x="678" y="1088"/>
      <point x="886" y="1099"/>
      <point x="891" y="1216" type="curve"/>
      <point x="881" y="1266"/>
      <point x="838" y="1312"/>
      <point x="792" y="1325" type="curve"/>
      <point x="705" y="1319"/>
      <point x="617" y="1196"/>
      <point x="545" y="1127" type="curve" smooth="yes"/>
      <point x="539" y="1122"/>
      <point x="532" y="1117"/>
      <point x="527" y="1114" type="curve"/>
      <point x="542" y="1198"/>
      <point x="587" y="1300"/>
      <point x="587" y="1384" type="curve" smooth="yes"/>
      <point x="587" y="1444"/>
      <point x="547" y="1478"/>
      <point x="507" y="1486" type="curve"/>
      <point x="452" y="1486"/>
      <point x="398" y="1461"/>
      <point x="384" y="1409" type="curve"/>
      <point x="384" y="1315"/>
      <point x="432" y="1209"/>
      <point x="442" y="1114" type="curve"/>
      <point x="377" y="1166"/>
      <point x="310" y="1258"/>
      <point x="241" y="1301" type="curve" smooth="yes"/>
      <point x="220" y="1314"/>
      <point x="200" y="1323"/>
      <point x="178" y="1325" type="curve"/>
      <point x="132" y="1312"/>
      <point x="89" y="1266"/>
      <point x="79" y="1216" type="curve"/>
      <point x="84" y="1097"/>
      <point x="288" y="1088"/>
      <point x="403" y="1039" type="curve"/>
      <point x="290" y="991"/>
      <point x="87" y="983"/>
      <point x="79" y="863" type="curve"/>
      <point x="89" y="811"/>
      <point x="132" y="765"/>
      <point x="178" y="753" type="curve"/>
      <point x="261" y="759"/>
      <point x="353" y="881"/>
      <point x="425" y="950" type="curve" smooth="yes"/>
      <point x="431" y="955"/>
      <point x="438" y="960"/>
      <point x="441" y="963" type="curve"/>
      <point x="428" y="881"/>
      <point x="382" y="779"/>
      <point x="382" y="696" type="curve" smooth="yes"/>
      <point x="382" y="636"/>
      <point x="423" y="599"/>
    </contour>
  </outline>
</glyph>
<glyph name="comma" format="1">
  <advance width="475"/>
  <unicode hex="002C"/>
  <outline>
    <contour>
      <point x="47" y="-235" type="line"/>
      <point x="218" y="-235" type="line"/>
      <point x="441" y="338" type="line"/>
      <point x="106" y="338" type="line"/>
    </contour>
  </outline>
</glyph>
<glyph name="hyphen" format="1">
  <advance width="827"/>
  <unicode hex="002D"/>
  <outline>
    <contour>
      <point x="90" y="460" type="line"/>
      <point x="737" y="460" type="line"/>
      <point x="737" y="722" type="line"/>
      <point x="90" y="722" type="line"/>
    </contour>
  </outline>
</glyph>
<glyph name="zero" format="1">
  <advance width="1354"/>
  <unicode hex="0030"/>
  <outline>
    <contour>
      <point x="684" y="158" type="curve" smooth="yes"/>
      <point x="377" y="158"/>
      <point x="340" y="402"/>
      <point x="340" y="740" type="curve" smooth="yes"/>
      <point x="340" y="1079"/>
      <point x="385" y="1324"/>
      <point x="684" y="1324" type="curve" smooth="yes"/>
      <point x="975" y="1324"/>
      <point x="1026" y="1075"/>
      <point x="1026" y="740" type="curve" smooth="yes"/>
      <point x="1026" y="414"/>
      <point x="984" y="158"/>
    </contour>
    <contour>
      <point x="684" y="-23" type="curve" smooth="yes"/>
      <point x="1108" y="-23"/>
      <point x="1266" y="273"/>
      <point x="1266" y="740" type="curve" smooth="yes"/>
      <point x="1266" y="1212"/>
      <point x="1107" y="1503"/>
      <point x="684" y="1503" type="curve" smooth="yes"/>
      <point x="261" y="1503"/>
      <point x="100" y="1211"/>
      <point x="100" y="740" type="curve" smooth="yes"/>
      <point x="100" y="272"/>
      <point x="260" y="-23"/>
    </contour>
  </outline>
</glyph>
<glyph name="one" format="1">
  <advance width="1169"/>
  <unicode hex="0031"/>
  <outline>
    <contour>
      <point x="237" y="0" type="line"/>
      <point x="987" y="0" type="line"/>
      <point x="987" y="181" type="line"/>
      <point x="733" y="181" type="line"/>
      <point x="733" y="1481" type="line"/>
      <point x="464" y="1481" type="line"/>
      <point x="426" y="1405"/>
      <point x="359" y="1342"/>
      <point x="214" y="1306" type="curve"/>
      <point x="214" y="1156" type="line"/>
      <point x="493" y="1240" type="line"/>
      <point x="493" y="181" type="line"/>
      <point x="237" y="181" type="line"/>
    </contour>
  </outline>
</glyph>
<glyph name="two" format="1">
  <advance width="1169"/>
  <unicode hex="0032"/>
  <outline>
    <contour>
      <point x="117" y="0" type="line"/>
      <point x="1098" y="0" type="line"/>
      <point x="1098" y="181" type="line"/>
      <point x="419" y="181" type="line"/>
      <point x="813" y="530"/>
      <point x="1092" y="803"/>
      <point x="1092" y="1096" type="curve" smooth="yes"/>
      <point x="1092" y="1345"/>
      <point x="921" y="1503"/>
      <point x="600" y="1503" type="curve" smooth="yes"/>
      <point x="433" y="1503"/>
      <point x="216" y="1436"/>
      <point x="141" y="1370" type="curve"/>
      <point x="189" y="1198" type="line"/>
      <point x="252" y="1252"/>
      <point x="445" y="1321"/>
      <point x="562" y="1321" type="curve" smooth="yes"/>
      <point x="791" y="1321"/>
      <point x="855" y="1229"/>
      <point x="855" y="1087" type="curve" smooth="yes"/>
      <point x="855" y="858"/>
      <point x="450" y="468"/>
      <point x="117" y="179" type="curve"/>
    </contour>
  </outline>
</glyph>
<glyph name="three" format="1">
  <advance width="1170"/>
  <unicode hex="0033"/>
  <outline>
    <contour>
      <point x="546" y="-23" type="curve" smooth="yes"/>
      <point x="906" y="-23"/>
      <point x="1119" y="153"/>
      <point x="1119" y="413" type="curve" smooth="yes"/>
      <point x="1119" y="613"/>
      <point x="956" y="741"/>
      <point x="821" y="784" type="curve"/>
      <point x="942" y="840"/>
      <point x="1065" y="924"/>
      <point x="1065" y="1115" type="curve" smooth="yes"/>
      <point x="1065" y="1318"/>
      <point x="904" y="1505"/>
      <point x="539" y="1505" type="curve" smooth="yes"/>
      <point x="365" y="1505"/>
      <point x="196" y="1460"/>
      <point x="102" y="1393" type="curve"/>
      <point x="102" y="1219" type="line"/>
      <point x="158" y="1219" type="line"/>
      <point x="158" y="1219"/>
      <point x="290" y="1319"/>
      <point x="512" y="1319" type="curve" smooth="yes"/>
      <point x="723" y="1319"/>
      <point x="823" y="1236"/>
      <point x="823" y="1115" type="curve" smooth="yes"/>
      <point x="823" y="974"/>
      <point x="748" y="865"/>
      <point x="486" y="865" type="curve" smooth="yes"/>
      <point x="366" y="865" type="line"/>
      <point x="366" y="712" type="line"/>
      <point x="486" y="712" type="line" smooth="yes"/>
      <point x="773" y="712"/>
      <point x="877" y="551"/>
      <point x="877" y="413" type="curve" smooth="yes"/>
      <point x="877" y="250"/>
      <point x="746" y="158"/>
      <point x="519" y="158" type="curve" smooth="yes"/>
      <point x="249" y="158"/>
      <point x="158" y="267"/>
      <point x="158" y="267" type="curve"/>
      <point x="102" y="267" type="line"/>
      <point x="102" y="89" type="line"/>
      <point x="164" y="46"/>
      <point x="323" y="-23"/>
    </contour>
  </outline>
</glyph>
<glyph name="four" format="1">
  <advance width="1170"/>
  <unicode hex="0034"/>
  <outline>
    <contour>
      <point x="709" y="0" type="line"/>
      <point x="905" y="0" type="line"/>
      <point x="905" y="218" type="line"/>
      <point x="1062" y="218" type="line"/>
      <point x="1062" y="403" type="line"/>
      <point x="905" y="403" type="line"/>
      <point x="905" y="1481" type="line"/>
      <point x="595" y="1481" type="line"/>
      <point x="52" y="403" type="line"/>
      <point x="52" y="218" type="line"/>
      <point x="709" y="218" type="line"/>
    </contour>
    <contour>
      <point x="266" y="403" type="line"/>
      <point x="709" y="1318" type="line"/>
      <point x="709" y="403" type="line"/>
    </contour>
  </outline>
</glyph>
<glyph name="five" format="1">
  <advance width="1168"/>
  <unicode hex="0035"/>
  <outline>
    <contour>
      <point x="568" y="-23" type="curve" smooth="yes"/>
      <point x="922" y="-23"/>
      <point x="1114" y="109"/>
      <point x="1114" y="427" type="curve" smooth="yes"/>
      <point x="1114" y="765"/>
      <point x="817" y="867"/>
      <point x="516" y="890" type="curve" smooth="yes"/>
      <point x="492" y="892"/>
      <point x="358" y="905"/>
      <point x="358" y="907" type="curve" smooth="yes"/>
      <point x="376" y="1300" type="line"/>
      <point x="1014" y="1300" type="line"/>
      <point x="1014" y="1481" type="line"/>
      <point x="155" y="1481" type="line"/>
      <point x="155" y="733" type="line"/>
      <point x="155" y="733"/>
      <point x="315" y="720"/>
      <point x="449" y="707" type="curve" smooth="yes"/>
      <point x="742" y="678"/>
      <point x="873" y="583"/>
      <point x="873" y="419" type="curve" smooth="yes"/>
      <point x="873" y="271"/>
      <point x="806" y="158"/>
      <point x="540" y="158" type="curve" smooth="yes"/>
      <point x="293" y="158"/>
      <point x="168" y="267"/>
      <point x="168" y="267" type="curve"/>
      <point x="111" y="267" type="line"/>
      <point x="111" y="90" type="line"/>
      <point x="209" y="24"/>
      <point x="359" y="-23"/>
    </contour>
  </outline>
</glyph>
<glyph name="six" format="1">
  <advance width="1168"/>
  <unicode hex="0036"/>
  <outline>
    <contour>
      <point x="600" y="-23" type="curve" smooth="yes"/>
      <point x="911" y="-23"/>
      <point x="1114" y="160"/>
      <point x="1114" y="465" type="curve" smooth="yes"/>
      <point x="1114" y="752"/>
      <point x="899" y="910"/>
      <point x="660" y="910" type="curve" smooth="yes"/>
      <point x="571" y="910"/>
      <point x="415" y="868"/>
      <point x="339" y="773" type="curve"/>
      <point x="401" y="1072"/>
      <point x="586" y="1285"/>
      <point x="931" y="1314" type="curve"/>
      <point x="895" y="1482" type="line"/>
      <point x="366" y="1479"/>
      <point x="82" y="1015"/>
      <point x="82" y="524" type="curve" smooth="yes"/>
      <point x="82" y="175"/>
      <point x="286" y="-23"/>
    </contour>
    <contour>
      <point x="589" y="158" type="curve" smooth="yes"/>
      <point x="426" y="158"/>
      <point x="321" y="285"/>
      <point x="321" y="431" type="curve" smooth="yes"/>
      <point x="321" y="551"/>
      <point x="386" y="725"/>
      <point x="607" y="727" type="curve"/>
      <point x="766" y="727"/>
      <point x="883" y="612"/>
      <point x="883" y="463" type="curve" smooth="yes"/>
      <point x="883" y="291"/>
      <point x="803" y="158"/>
    </contour>
  </outline>
</glyph>
<glyph name="seven" format="1">
  <advance width="1169"/>
  <unicode hex="0037"/>
  <outline>
    <contour>
      <point x="261" y="0" type="line"/>
      <point x="512" y="0" type="line"/>
      <point x="1069" y="1305" type="line"/>
      <point x="1069" y="1481" type="line"/>
      <point x="130" y="1481" type="line"/>
      <point x="130" y="1142" type="line"/>
      <point x="340" y="1142" type="line"/>
      <point x="340" y="1300" type="line"/>
      <point x="821" y="1300" type="line"/>
    </contour>
  </outline>
</glyph>
<glyph name="eight" format="1">
  <advance width="1345"/>
  <unicode hex="0038"/>
  <outline>
    <contour>
      <point x="672" y="-23" type="curve" smooth="yes"/>
      <point x="1013" y="-23"/>
      <point x="1219" y="162"/>
      <point x="1219" y="420" type="curve" smooth="yes"/>
      <point x="1219" y="584"/>
      <point x="1088" y="706"/>
      <point x="920" y="785" type="curve"/>
      <point x="1113" y="891"/>
      <point x="1179" y="1046"/>
      <point x="1179" y="1161" type="curve" smooth="yes"/>
      <point x="1179" y="1354"/>
      <point x="995" y="1503"/>
      <point x="674" y="1503" type="curve" smooth="yes"/>
      <point x="367" y="1503"/>
      <point x="168" y="1342"/>
      <point x="168" y="1148" type="curve" smooth="yes"/>
      <point x="168" y="1027"/>
      <point x="240" y="897"/>
      <point x="467" y="781" type="curve"/>
      <point x="306" y="702"/>
      <point x="127" y="586"/>
      <point x="127" y="381" type="curve" smooth="yes"/>
      <point x="127" y="173"/>
      <point x="324" y="-23"/>
    </contour>
    <contour>
      <point x="684" y="153" type="curve" smooth="yes"/>
      <point x="467" y="153"/>
      <point x="358" y="257"/>
      <point x="358" y="409" type="curve" smooth="yes"/>
      <point x="358" y="567"/>
      <point x="541" y="670"/>
      <point x="610" y="706" type="curve"/>
      <point x="888" y="625"/>
      <point x="978" y="496"/>
      <point x="978" y="388" type="curve" smooth="yes"/>
      <point x="978" y="277"/>
      <point x="897" y="153"/>
    </contour>
    <contour>
      <point x="777" y="852" type="curve"/>
      <point x="612" y="909"/>
      <point x="408" y="1021"/>
      <point x="408" y="1144" type="curve" smooth="yes"/>
      <point x="408" y="1303"/>
      <point x="595" y="1330"/>
      <point x="685" y="1330" type="curve" smooth="yes"/>
      <point x="837" y="1330"/>
      <point x="957" y="1262"/>
      <point x="957" y="1141" type="curve" smooth="yes"/>
      <point x="957" y="986"/>
      <point x="823" y="891"/>
    </contour>
  </outline>
</glyph>
<glyph name="nine" format="1">
  <advance width="1168"/>
  <unicode hex="0039"/>
  <outline>
    <contour>
      <point x="319" y="-26" type="line"/>
      <point x="848" y="-23"/>
      <point x="1133" y="440"/>
      <point x="1133" y="931" type="curve" smooth="yes"/>
      <point x="1133" y="1280"/>
      <point x="930" y="1477"/>
      <point x="616" y="1477" type="curve" smooth="yes"/>
      <point x="305" y="1477"/>
      <point x="100" y="1295"/>
      <point x="100" y="990" type="curve" smooth="yes"/>
      <point x="100" y="703"/>
      <point x="316" y="546"/>
      <point x="555" y="546" type="curve" smooth="yes"/>
      <point x="644" y="546"/>
      <point x="801" y="586"/>
      <point x="877" y="681" type="curve"/>
      <point x="815" y="382"/>
      <point x="628" y="170"/>
      <point x="283" y="141" type="curve"/>
    </contour>
    <contour>
      <point x="607" y="727" type="curve"/>
      <point x="448" y="727"/>
      <point x="333" y="844"/>
      <point x="333" y="993" type="curve" smooth="yes"/>
      <point x="333" y="1165"/>
      <point x="413" y="1298"/>
      <point x="627" y="1298" type="curve" smooth="yes"/>
      <point x="790" y="1298"/>
      <point x="894" y="1171"/>
      <point x="894" y="1025" type="curve" smooth="yes"/>
      <point x="894" y="905"/>
      <point x="828" y="729"/>
    </contour>
  </outline>
</glyph>
<glyph name="semicolon" format="1">
  <advance width="549"/>
  <unicode hex="003B"/>
  <outline>
    <contour>
      <point x="84" y="-235" type="line"/>
      <point x="255" y="-235" type="line"/>
      <point x="478" y="338" type="line"/>
      <point x="143" y="338" type="line"/>
    </contour>
    <contour>
      <point x="276" y="627" type="curve" smooth="yes"/>
      <point x="387" y="627"/>
      <point x="478" y="718"/>
      <point x="478" y="829" type="curve" smooth="yes"/>
      <point x="478" y="940"/>
      <point x="387" y="1030"/>
      <point x="276" y="1030" type="curve" smooth="yes"/>
      <point x="165" y="1030"/>
      <point x="75" y="940"/>
      <point x="75" y="829" type="curve" smooth="yes"/>
      <point x="75" y="718"/>
      <point x="165" y="627"/>
    </contour>
  </outline>
</glyph>
<glyph name="greater" format="1">
  <advance width="1285"/>
  <unicode hex="003E"/>
  <outline>
    <contour>
      <point x="37" y="-14" type="line"/>
      <point x="1253" y="469" type="line"/>
      <point x="1253" y="676" type="line"/>
      <point x="37" y="1160" type="line"/>
      <point x="37" y="912" type="line"/>
      <point x="904" y="573" type="line"/>
      <point x="37" y="233" type="line"/>
    </contour>
  </outline>
</glyph>
<glyph name="question" format="1">
  <advance width="942"/>
  <unicode hex="003F"/>
  <outline>
    <contour>
      <point x="304" y="507" type="curve"/>
      <point x="421" y="507" type="line"/>
      <point x="612" y="681"/>
      <point x="875" y="876"/>
      <point x="875" y="1138" type="curve" smooth="yes"/>
      <point x="875" y="1338"/>
      <point x="753" y="1503"/>
      <point x="467" y="1503" type="curve" smooth="yes"/>
      <point x="286" y="1503"/>
      <point x="132" y="1418"/>
      <point x="70" y="1382" type="curve"/>
      <point x="70" y="1192" type="line"/>
      <point x="159" y="1261"/>
      <point x="280" y="1321"/>
      <point x="410" y="1321" type="curve" smooth="yes"/>
      <point x="577" y="1321"/>
      <point x="654" y="1220"/>
      <point x="654" y="1089" type="curve" smooth="yes"/>
      <point x="654" y="950"/>
      <point x="445" y="696"/>
    </contour>
    <contour>
      <point x="360" y="-8" type="curve" smooth="yes"/>
      <point x="453" y="-8"/>
      <point x="527" y="65"/>
      <point x="527" y="158" type="curve" smooth="yes"/>
      <point x="527" y="251"/>
      <point x="453" y="325"/>
      <point x="360" y="325" type="curve" smooth="yes"/>
      <point x="267" y="325"/>
      <point x="194" y="251"/>
      <point x="194" y="158" type="curve" smooth="yes"/>
      <point x="194" y="65"/>
      <point x="267" y="-8"/>
    </contour>
  </outline>
</glyph>
<glyph name="at" format="1">
  <advance width="1715"/>
  <unicode hex="0040"/>
  <outline>
    <contour>
      <point x="879" y="-121" type="curve" smooth="yes"/>
      <point x="1031" y="-121"/>
      <point x="1187" y="-92"/>
      <point x="1316" y="2" type="curve"/>
      <point x="1271" y="104" type="line"/>
      <point x="1152" y="39"/>
      <point x="1028" y="-3"/>
      <point x="886" y="-3" type="curve" smooth="yes"/>
      <point x="436" y="-3"/>
      <point x="235" y="271"/>
      <point x="235" y="626" type="curve" smooth="yes"/>
      <point x="235" y="972"/>
      <point x="462" y="1279"/>
      <point x="890" y="1279" type="curve" smooth="yes"/>
      <point x="1288" y="1279"/>
      <point x="1505" y="1010"/>
      <point x="1505" y="682" type="curve" smooth="yes"/>
      <point x="1505" y="455"/>
      <point x="1420" y="278"/>
      <point x="1287" y="278" type="curve" smooth="yes"/>
      <point x="1224" y="278"/>
      <point x="1169" y="302"/>
      <point x="1169" y="419" type="curve" smooth="yes"/>
      <point x="1169" y="438"/>
      <point x="1170" y="459"/>
      <point x="1173" y="482" type="curve" smooth="yes"/>
      <point x="1237" y="1042" type="line"/>
      <point x="1110" y="1042" type="line"/>
      <point x="1092" y="957" type="line"/>
      <point x="1053" y="1002"/>
      <point x="972" y="1075"/>
      <point x="831" y="1075" type="curve" smooth="yes"/>
      <point x="578" y="1075"/>
      <point x="425" y="862"/>
      <point x="425" y="594" type="curve" smooth="yes"/>
      <point x="425" y="378"/>
      <point x="550" y="201"/>
      <point x="809" y="201" type="curve" smooth="yes"/>
      <point x="902" y="201"/>
      <point x="1002" y="263"/>
      <point x="1055" y="326" type="curve"/>
      <point x="1078" y="240"/>
      <point x="1161" y="175"/>
      <point x="1280" y="175" type="curve" smooth="yes"/>
      <point x="1476" y="175"/>
      <point x="1639" y="396"/>
      <point x="1639" y="700" type="curve" smooth="yes"/>
      <point x="1639" y="1107"/>
      <point x="1330" y="1402"/>
      <point x="886" y="1402" type="curve" smooth="yes"/>
      <point x="419" y="1402"/>
      <point x="77" y="1077"/>
      <point x="77" y="627" type="curve" smooth="yes"/>
      <point x="77" y="180"/>
      <point x="402" y="-121"/>
    </contour>
    <contour>
      <point x="804" y="305" type="curve" smooth="yes"/>
      <point x="642" y="305"/>
      <point x="578" y="437"/>
      <point x="578" y="597" type="curve" smooth="yes"/>
      <point x="578" y="840"/>
      <point x="696" y="969"/>
      <point x="857" y="969" type="curve" smooth="yes"/>
      <point x="961" y="969"/>
      <point x="1034" y="914"/>
      <point x="1076" y="858" type="curve"/>
      <point x="1025" y="395" type="line"/>
      <point x="1006" y="372"/>
      <point x="923" y="305"/>
    </contour>
  </outline>
</glyph>
<glyph name="A" format="1">
  <advance width="1321"/>
  <unicode hex="0041"/>
  <outline>
    <contour>
      <point x="19" y="0" type="line"/>
      <point x="253" y="0" type="line"/>
      <point x="374" y="365" type="line"/>
      <point x="954" y="365" type="line"/>
      <point x="1074" y="0" type="line"/>
      <point x="1308" y="0" type="line"/>
      <point x="794" y="1481" type="line"/>
      <point x="518" y="1481" type="line"/>
    </contour>
    <contour>
      <point x="431" y="542" type="line"/>
      <point x="658" y="1264" type="line"/>
      <point x="896" y="542" type="line"/>
    </contour>
  </outline>
</glyph>
<glyph name="E" format="1">
  <advance width="1089"/>
  <unicode hex="0045"/>
  <outline>
    <contour>
      <point x="146" y="0" type="line"/>
      <point x="998" y="0" type="line"/>
      <point x="998" y="181" type="line"/>
      <point x="386" y="181" type="line"/>
      <point x="386" y="696" type="line"/>
      <point x="917" y="696" type="line"/>
      <point x="917" y="877" type="line"/>
      <point x="386" y="877" type="line"/>
      <point x="386" y="1301" type="line"/>
      <point x="998" y="1301" type="line"/>
      <point x="998" y="1481" type="line"/>
      <point x="146" y="1481" type="line"/>
    </contour>
  </outline>
</glyph>
<glyph name="G" format="1">
  <advance width="1411"/>
  <unicode hex="0047"/>
  <outline>
    <contour>
      <point x="787" y="-23" type="curve" smooth="yes"/>
      <point x="1014" y="-23"/>
      <point x="1197" y="42"/>
      <point x="1319" y="110" type="curve"/>
      <point x="1319" y="832" type="line"/>
      <point x="736" y="832" type="line"/>
      <point x="736" y="634" type="line"/>
      <point x="1101" y="634" type="line"/>
      <point x="1101" y="207" type="line"/>
      <point x="1101" y="206"/>
      <point x="986" y="159"/>
      <point x="838" y="159" type="curve" smooth="yes"/>
      <point x="490" y="159"/>
      <point x="339" y="337"/>
      <point x="339" y="746" type="curve" smooth="yes"/>
      <point x="339" y="1145"/>
      <point x="488" y="1321"/>
      <point x="801" y="1321" type="curve" smooth="yes"/>
      <point x="1027" y="1321"/>
      <point x="1189" y="1205"/>
      <point x="1189" y="1202" type="curve" smooth="yes"/>
      <point x="1240" y="1376" type="line"/>
      <point x="1184" y="1414"/>
      <point x="1025" y="1503"/>
      <point x="805" y="1503" type="curve" smooth="yes"/>
      <point x="341" y="1503"/>
      <point x="99" y="1235"/>
      <point x="99" y="742" type="curve" smooth="yes"/>
      <point x="99" y="270"/>
      <point x="299" y="-23"/>
    </contour>
  </outline>
</glyph>
<glyph name="H" format="1">
  <advance width="1422"/>
  <unicode hex="0048"/>
  <outline>
    <contour>
      <point x="146" y="0" type="line"/>
      <point x="386" y="0" type="line"/>
      <point x="386" y="672" type="line"/>
      <point x="1037" y="672" type="line"/>
      <point x="1037" y="0" type="line"/>
      <point x="1277" y="0" type="line"/>
      <point x="1277" y="1481" type="line"/>
      <point x="1037" y="1481" type="line"/>
      <point x="1037" y="853" type="line"/>
      <point x="386" y="853" type="line"/>
      <point x="386" y="1481" type="line"/>
      <point x="146" y="1481" type="line"/>
    </contour>
  </outline>
</glyph>
<glyph name="N" format="1">
  <advance width="1557"/>
  <unicode hex="004E"/>
  <outline>
    <contour>
      <point x="146" y="0" type="line"/>
      <point x="386" y="0" type="line"/>
      <point x="386" y="917" type="line"/>
      <point x="379" y="1120" type="line"/>
      <point x="1188" y="0" type="line"/>
      <point x="1413" y="0" type="line"/>
      <point x="1413" y="1481" type="line"/>
      <point x="1173" y="1481" type="line"/>
      <point x="1173" y="573" type="line"/>
      <point x="1176" y="376" type="line"/>
      <point x="1146" y="415"/>
      <point x="383" y="1481"/>
      <point x="383" y="1481" type="curve"/>
      <point x="146" y="1481" type="line"/>
    </contour>
  </outline>
</glyph>
<glyph name="P" format="1">
  <advance width="1209"/>
  <unicode hex="0050"/>
  <outline>
    <contour>
      <point x="146" y="0" type="line"/>
      <point x="386" y="0" type="line"/>
      <point x="386" y="587" type="line"/>
      <point x="562" y="587" type="line" smooth="yes"/>
      <point x="914" y="587"/>
      <point x="1136" y="717"/>
      <point x="1136" y="1016" type="curve" smooth="yes"/>
      <point x="1136" y="1357"/>
      <point x="918" y="1481"/>
      <point x="577" y="1481" type="curve" smooth="yes"/>
      <point x="146" y="1481" type="line"/>
    </contour>
    <contour>
      <point x="386" y="766" type="line"/>
      <point x="386" y="1300" type="line"/>
      <point x="569" y="1300" type="line" smooth="yes"/>
      <point x="829" y="1300"/>
      <point x="895" y="1206"/>
      <point x="895" y="1017" type="curve" smooth="yes"/>
      <point x="895" y="805"/>
      <point x="763" y="766"/>
      <point x="562" y="766" type="curve" smooth="yes"/>
    </contour>
  </outline>
</glyph>
<glyph name="S" format="1">
  <advance width="1225"/>
  <unicode hex="0053"/>
  <outline>
    <contour>
      <point x="567" y="-19" type="curve" smooth="yes"/>
      <point x="895" y="-19"/>
      <point x="1147" y="135"/>
      <point x="1147" y="407" type="curve" smooth="yes"/>
      <point x="1147" y="669"/>
      <point x="1017" y="759"/>
      <point x="598" y="859" type="curve"/>
      <point x="378" y="905"/>
      <point x="300" y="972"/>
      <point x="300" y="1080" type="curve" smooth="yes"/>
      <point x="300" y="1211"/>
      <point x="411" y="1324"/>
      <point x="632" y="1324" type="curve" smooth="yes"/>
      <point x="767" y="1324"/>
      <point x="921" y="1277"/>
      <point x="1041" y="1200" type="curve"/>
      <point x="1069" y="1200" type="line"/>
      <point x="1095" y="1384" type="line"/>
      <point x="967" y="1456"/>
      <point x="798" y="1503"/>
      <point x="626" y="1503" type="curve" smooth="yes"/>
      <point x="310" y="1503"/>
      <point x="81" y="1333"/>
      <point x="81" y="1064" type="curve" smooth="yes"/>
      <point x="81" y="813"/>
      <point x="231" y="725"/>
      <point x="579" y="648" type="curve" smooth="yes"/>
      <point x="859" y="586"/>
      <point x="909" y="503"/>
      <point x="909" y="379" type="curve" smooth="yes"/>
      <point x="909" y="270"/>
      <point x="826" y="157"/>
      <point x="573" y="157" type="curve" smooth="yes"/>
      <point x="432" y="157"/>
      <point x="227" y="202"/>
      <point x="112" y="321" type="curve"/>
      <point x="82" y="321" type="line"/>
      <point x="50" y="126" type="line"/>
      <point x="185" y="37"/>
      <point x="351" y="-19"/>
    </contour>
  </outline>
</glyph>
<glyph name="U" format="1">
  <advance width="1361"/>
  <unicode hex="0055"/>
  <outline>
    <contour>
      <point x="674" y="-23" type="curve" smooth="yes"/>
      <point x="1046" y="-23"/>
      <point x="1227" y="166"/>
      <point x="1227" y="476" type="curve" smooth="yes"/>
      <point x="1227" y="1481" type="line"/>
      <point x="986" y="1481" type="line"/>
      <point x="986" y="468" type="line" smooth="yes"/>
      <point x="986" y="235"/>
      <point x="875" y="158"/>
      <point x="676" y="158" type="curve" smooth="yes"/>
      <point x="475" y="158"/>
      <point x="365" y="234"/>
      <point x="365" y="467" type="curve" smooth="yes"/>
      <point x="365" y="1481" type="line"/>
      <point x="124" y="1481" type="line"/>
      <point x="124" y="475" type="line" smooth="yes"/>
      <point x="124" y="161"/>
      <point x="318" y="-23"/>
    </contour>
  </outline>
</glyph>
<glyph name="V" format="1">
  <advance width="1355"/>
  <unicode hex="0056"/>
  <outline>
    <contour>
      <point x="536" y="0" type="line"/>
      <point x="832" y="0" type="line"/>
      <point x="1371" y="1481" type="line"/>
      <point x="1108" y="1481" type="line"/>
      <point x="739" y="410" type="line"/>
      <point x="684" y="239" type="line"/>
      <point x="681" y="239" type="line"/>
      <point x="626" y="410" type="line"/>
      <point x="249" y="1481" type="line"/>
      <point x="-13" y="1481" type="line"/>
    </contour>
  </outline>
</glyph>
<glyph name="X" format="1">
  <advance width="1352"/>
  <unicode hex="0058"/>
  <outline>
    <contour>
      <point x="-19" y="0" type="line"/>
      <point x="258" y="0" type="line"/>
      <point x="582" y="445" type="line"/>
      <point x="676" y="574" type="line"/>
      <point x="771" y="440" type="line"/>
      <point x="1077" y="0" type="line"/>
      <point x="1345" y="0" type="line"/>
      <point x="809" y="733" type="line"/>
      <point x="1372" y="1481" type="line"/>
      <point x="1088" y="1481" type="line"/>
      <point x="746" y="1011" type="line"/>
      <point x="671" y="909" type="line"/>
      <point x="599" y="1011" type="line"/>
      <point x="266" y="1481" type="line"/>
      <point x="10" y="1481" type="line"/>
      <point x="540" y="746" type="line"/>
    </contour>
  </outline>
</glyph>
<glyph name="bracketleft" format="1">
  <advance width="677"/>
  <unicode hex="005B"/>
  <outline>
    <contour>
      <point x="87" y="-257" type="line"/>
      <point x="597" y="-257" type="line"/>
      <point x="597" y="-76" type="line"/>
      <point x="328" y="-76" type="line"/>
      <point x="328" y="1300" type="line"/>
      <point x="597" y="1300" type="line"/>
      <point x="597" y="1481" type="line"/>
      <point x="87" y="1481" type="line"/>
    </contour>
  </outline>
</glyph>
<glyph name="asciicircum" format="1">
  <advance width="1326"/>
  <unicode hex="005E"/>
  <outline>
    <contour>
      <point x="57" y="600" type="line"/>
      <point x="346" y="600" type="line"/>
      <point x="649" y="1140" type="line"/>
      <point x="980" y="601" type="line"/>
      <point x="1268" y="601" type="line"/>
      <point x="765" y="1391" type="line"/>
      <point x="534" y="1391" type="line"/>
    </contour>
  </outline>
</glyph>
<glyph name="underscore" format="1">
  <advance width="1400"/>
  <unicode hex="005F"/>
  <outline>
    <contour>
      <point x="90" y="-306" type="line"/>
      <point x="1310" y="-306" type="line"/>
      <point x="1310" y="-129" type="line"/>
      <point x="90" y="-129" type="line"/>
    </contour>
  </outline>
</glyph>
<glyph name="a" format="1">
  <advance width="1067"/>
  <unicode hex="0061"/>
  <outline>
    <contour>
      <point x="395" y="-23" type="curve" smooth="yes"/>
      <point x="574" y="-23"/>
      <point x="697" y="82"/>
      <point x="727" y="161" type="curve"/>
      <point x="729" y="0" type="line"/>
      <point x="971" y="0" type="line"/>
      <point x="971" y="658" type="line" smooth="yes"/>
      <point x="971" y="899"/>
      <point x="882" y="1059"/>
      <point x="524" y="1059" type="curve" smooth="yes"/>
      <point x="368" y="1059"/>
      <point x="200" y="1019"/>
      <point x="133" y="971" type="curve"/>
      <point x="189" y="808" type="line"/>
      <point x="289" y="847"/>
      <point x="409" y="877"/>
      <point x="509" y="877" type="curve" smooth="yes"/>
      <point x="677" y="877"/>
      <point x="729" y="805"/>
      <point x="729" y="645" type="curve"/>
      <point x="374" y="645"/>
      <point x="66" y="602"/>
      <point x="66" y="289" type="curve" smooth="yes"/>
      <point x="66" y="111"/>
      <point x="201" y="-23"/>
    </contour>
    <contour>
      <point x="458" y="153" type="curve" smooth="yes"/>
      <point x="371" y="153"/>
      <point x="293" y="196"/>
      <point x="293" y="312" type="curve" smooth="yes"/>
      <point x="293" y="443"/>
      <point x="433" y="490"/>
      <point x="729" y="502" type="curve"/>
      <point x="729" y="273"/>
      <point x="636" y="153"/>
    </contour>
  </outline>
</glyph>
<glyph name="c" format="1">
  <advance width="1016"/>
  <unicode hex="0063"/>
  <outline>
    <contour>
      <point x="616" y="-23" type="curve" smooth="yes"/>
      <point x="758" y="-23"/>
      <point x="856" y="13"/>
      <point x="964" y="71" type="curve"/>
      <point x="925" y="256" type="line"/>
      <point x="859" y="211"/>
      <point x="775" y="159"/>
      <point x="627" y="159" type="curve" smooth="yes"/>
      <point x="418" y="159"/>
      <point x="314" y="277"/>
      <point x="314" y="512" type="curve" smooth="yes"/>
      <point x="314" y="763"/>
      <point x="453" y="878"/>
      <point x="637" y="878" type="curve" smooth="yes"/>
      <point x="741" y="878"/>
      <point x="850" y="837"/>
      <point x="930" y="775" type="curve"/>
      <point x="968" y="960" type="line"/>
      <point x="835" y="1035"/>
      <point x="730" y="1055"/>
      <point x="607" y="1055" type="curve" smooth="yes"/>
      <point x="332" y="1055"/>
      <point x="80" y="905"/>
      <point x="80" y="513" type="curve" smooth="yes"/>
      <point x="80" y="141"/>
      <point x="310" y="-23"/>
    </contour>
  </outline>
</glyph>
<glyph name="d" format="1">
  <advance width="1145"/>
  <unicode hex="0064"/>
  <outline>
    <contour>
      <point x="497" y="-23" type="curve" smooth="yes"/>
      <point x="617" y="-23"/>
      <point x="749" y="42"/>
      <point x="791" y="105" type="curve"/>
      <point x="791" y="0" type="line"/>
      <point x="1032" y="0" type="line"/>
      <point x="1032" y="1430" type="line"/>
      <point x="791" y="1430" type="line"/>
      <point x="791" y="961" type="line"/>
      <point x="747" y="1007"/>
      <point x="630" y="1059"/>
      <point x="520" y="1059" type="curve" smooth="yes"/>
      <point x="252" y="1059"/>
      <point x="80" y="870"/>
      <point x="80" y="516" type="curve" smooth="yes"/>
      <point x="80" y="198"/>
      <point x="220" y="-23"/>
    </contour>
    <contour>
      <point x="580" y="158" type="curve" smooth="yes"/>
      <point x="408" y="158"/>
      <point x="321" y="306"/>
      <point x="321" y="518" type="curve" smooth="yes"/>
      <point x="321" y="702"/>
      <point x="380" y="877"/>
      <point x="559" y="877" type="curve" smooth="yes"/>
      <point x="615" y="877"/>
      <point x="711" y="866"/>
      <point x="791" y="817" type="curve"/>
      <point x="791" y="216" type="line"/>
      <point x="735" y="168"/>
      <point x="623" y="158"/>
    </contour>
  </outline>
</glyph>
<glyph name="e" format="1">
  <advance width="1092"/>
  <unicode hex="0065"/>
  <outline>
    <contour>
      <point x="626" y="-23" type="curve" smooth="yes"/>
      <point x="855" y="-23"/>
      <point x="984" y="60"/>
      <point x="1029" y="99" type="curve"/>
      <point x="983" y="246" type="line"/>
      <point x="937" y="246" type="line"/>
      <point x="870" y="188"/>
      <point x="766" y="148"/>
      <point x="651" y="148" type="curve" smooth="yes"/>
      <point x="451" y="148"/>
      <point x="325" y="261"/>
      <point x="316" y="460" type="curve"/>
      <point x="1039" y="460" type="line"/>
      <point x="1039" y="512" type="line" smooth="yes"/>
      <point x="1039" y="825"/>
      <point x="893" y="1055"/>
      <point x="580" y="1055" type="curve" smooth="yes"/>
      <point x="281" y="1055"/>
      <point x="80" y="860"/>
      <point x="80" y="512" type="curve" smooth="yes"/>
      <point x="80" y="158"/>
      <point x="325" y="-23"/>
    </contour>
    <contour>
      <point x="319" y="612" type="line"/>
      <point x="338" y="764"/>
      <point x="423" y="888"/>
      <point x="584" y="888" type="curve" smooth="yes"/>
      <point x="759" y="888"/>
      <point x="818" y="739"/>
      <point x="823" y="612" type="curve"/>
    </contour>
  </outline>
</glyph>
<glyph name="g" format="1">
  <advance width="1139"/>
  <unicode hex="0067"/>
  <outline>
    <contour>
      <point x="565" y="-386" type="curve" smooth="yes"/>
      <point x="859" y="-386"/>
      <point x="1029" y="-256"/>
      <point x="1029" y="115" type="curve" smooth="yes"/>
      <point x="1029" y="1037" type="line"/>
      <point x="788" y="1037" type="line"/>
      <point x="788" y="942" type="line"/>
      <point x="744" y="1017"/>
      <point x="624" y="1058"/>
      <point x="516" y="1058" type="curve" smooth="yes"/>
      <point x="246" y="1058"/>
      <point x="80" y="866"/>
      <point x="80" y="537" type="curve" smooth="yes"/>
      <point x="80" y="166"/>
      <point x="289" y="0"/>
      <point x="540" y="0" type="curve" smooth="yes"/>
      <point x="648" y="0"/>
      <point x="725" y="37"/>
      <point x="797" y="104" type="curve"/>
      <point x="797" y="96"/>
      <point x="796" y="90"/>
      <point x="796" y="83" type="curve" smooth="yes"/>
      <point x="792" y="-90"/>
      <point x="736" y="-206"/>
      <point x="536" y="-206" type="curve" smooth="yes"/>
      <point x="441" y="-206"/>
      <point x="279" y="-165"/>
      <point x="212" y="-120" type="curve"/>
      <point x="170" y="-297" type="line"/>
      <point x="266" y="-347"/>
      <point x="414" y="-386"/>
    </contour>
    <contour>
      <point x="585" y="178" type="curve" smooth="yes"/>
      <point x="448" y="178"/>
      <point x="321" y="256"/>
      <point x="321" y="536" type="curve" smooth="yes"/>
      <point x="321" y="802"/>
      <point x="442" y="890"/>
      <point x="569" y="890" type="curve" smooth="yes"/>
      <point x="673" y="890"/>
      <point x="745" y="855"/>
      <point x="788" y="837" type="curve"/>
      <point x="788" y="258" type="line"/>
      <point x="735" y="202"/>
      <point x="647" y="178"/>
    </contour>
  </outline>
</glyph>
<glyph name="k" format="1">
  <advance width="1090"/>
  <unicode hex="006B"/>
  <outline>
    <contour>
      <point x="115" y="0" type="line"/>
      <point x="355" y="0" type="line"/>
      <point x="355" y="376" type="line"/>
      <point x="483" y="485" type="line"/>
      <point x="859" y="0" type="line"/>
      <point x="1069" y="0" type="line"/>
      <point x="1069" y="60" type="line"/>
      <point x="659" y="601" type="line"/>
      <point x="1060" y="988" type="line"/>
      <point x="1060" y="1032" type="line"/>
      <point x="817" y="1032" type="line"/>
      <point x="356" y="597" type="line"/>
      <point x="355" y="597" type="line"/>
      <point x="355" y="1430" type="line"/>
      <point x="115" y="1430" type="line"/>
    </contour>
  </outline>
</glyph>
<glyph name="l" format="1">
  <advance width="589"/>
  <unicode hex="006C"/>
  <outline>
    <contour>
      <point x="470" y="-6" type="curve" smooth="yes"/>
      <point x="552" y="-6" type="line"/>
      <point x="552" y="174" type="line"/>
      <point x="417" y="174"/>
      <point x="356" y="172"/>
      <point x="356" y="301" type="curve" smooth="yes"/>
      <point x="356" y="1430" type="line"/>
      <point x="115" y="1430" type="line"/>
      <point x="115" y="348" type="line" smooth="yes"/>
      <point x="115" y="196"/>
      <point x="78" y="-6"/>
    </contour>
  </outline>
</glyph>
<glyph name="s" format="1">
  <advance width="966"/>
  <unicode hex="0073"/>
  <outline>
    <contour>
      <point x="477.0" y="-23.0" type="curve" smooth="yes"/>
      <point x="763.0" y="-23.0"/>
      <point x="925.0" y="101.0"/>
      <point x="925.0" y="298.0" type="curve" smooth="yes"/>
      <point x="925.0" y="493.0"/>
      <point x="818.0" y="574.0"/>
      <point x="578.0" y="620.0" type="curve"/>
      <point x="374.0" y="664.0"/>
      <point x="305.0" y="679.0"/>
      <point x="305.0" y="760.0" type="curve" smooth="yes"/>
      <point x="305.0" y="837.0"/>
      <point x="380.0" y="876.0"/>
      <point x="482.0" y="876.0" type="curve" smooth="yes"/>
      <point x="607.0" y="876.0"/>
      <point x="751.0" y="836.0"/>
      <point x="814.0" y="810.0" type="curve"/>
      <point x="835.0" y="810.0" type="line"/>
      <point x="854" y="988" type="line"/>
      <point x="798" y="1019"/>
      <point x="642.0" y="1058.0"/>
      <point x="477.0" y="1058.0" type="curve" smooth="yes"/>
      <point x="210.0" y="1058.0"/>
      <point x="76.0" y="934.0"/>
      <point x="76.0" y="747.0" type="curve" smooth="yes"/>
      <point x="76.0" y="547.0"/>
      <point x="262.0" y="483.0"/>
      <point x="467.0" y="444.0" type="curve"/>
      <point x="685.0" y="401.0"/>
      <point x="707.0" y="369.0"/>
      <point x="707.0" y="298.0" type="curve" smooth="yes"/>
      <point x="707.0" y="216.0"/>
      <point x="608.0" y="168.0"/>
      <point x="472.0" y="168.0" type="curve" smooth="yes"/>
      <point x="323.0" y="168.0"/>
      <point x="216.0" y="210.0"/>
      <point x="146.0" y="246.0" type="curve"/>
      <point x="108.0" y="246.0" type="line"/>
      <point x="79.0" y="71.0" type="line"/>
      <point x="181.0" y="11.0"/>
      <point x="338.0" y="-23.0"/>
    </contour>
  </outline>
</glyph>
<glyph name="t" format="1">
  <advance width="855"/>
  <unicode hex="0074"/>
  <outline>
    <contour>
      <point x="551" y="-13" type="curve" smooth="yes"/>
      <point x="661" y="-13"/>
      <point x="702" y="-8"/>
      <point x="769" y="5" type="curve"/>
      <point x="769" y="179" type="line" smooth="yes"/>
      <point x="769" y="177"/>
      <point x="698" y="165"/>
      <point x="611" y="165" type="curve" smooth="yes"/>
      <point x="509" y="165"/>
      <point x="436" y="199"/>
      <point x="436" y="332" type="curve" smooth="yes"/>
      <point x="436" y="871" type="line"/>
      <point x="769" y="871" type="line"/>
      <point x="769" y="1037" type="line"/>
      <point x="436" y="1037" type="line"/>
      <point x="436" y="1356" type="line"/>
      <point x="196" y="1287" type="line"/>
      <point x="196" y="1037" type="line"/>
      <point x="74" y="1037" type="line"/>
      <point x="74" y="871" type="line"/>
      <point x="196" y="871" type="line"/>
      <point x="196" y="328" type="line" smooth="yes"/>
      <point x="196" y="91"/>
      <point x="302" y="-13"/>
    </contour>
  </outline>
</glyph>
<glyph name="v" format="1">
  <advance width="1058"/>
  <unicode hex="0076"/>
  <outline>
    <contour>
      <point x="403" y="0" type="line"/>
      <point x="661" y="0" type="line"/>
      <point x="1069" y="1032" type="line"/>
      <point x="813" y="1032" type="line"/>
      <point x="592" y="399" type="line"/>
      <point x="537" y="244" type="line"/>
      <point x="536" y="244" type="line"/>
      <point x="477" y="399" type="line"/>
      <point x="237" y="1032" type="line"/>
      <point x="-8" y="1032" type="line"/>
    </contour>
  </outline>
</glyph>
<glyph name="w" format="1">
  <advance width="1652"/>
  <unicode hex="0077"/>
  <outline>
    <contour>
      <point x="332" y="0" type="line"/>
      <point x="609" y="0" type="line"/>
      <point x="825" y="760" type="line"/>
      <point x="828" y="760" type="line"/>
      <point x="1041" y="0" type="line"/>
      <point x="1319" y="0" type="line"/>
      <point x="1638" y="1032" type="line"/>
      <point x="1379" y="1032" type="line"/>
      <point x="1210" y="378" type="line"/>
      <point x="1175" y="244" type="line"/>
      <point x="1139" y="379" type="line"/>
      <point x="962" y="1032" type="line"/>
      <point x="700" y="1032" type="line"/>
      <point x="524" y="376" type="line"/>
      <point x="486" y="237" type="line"/>
      <point x="485" y="237" type="line"/>
      <point x="447" y="379" type="line"/>
      <point x="278" y="1032" type="line"/>
      <point x="15" y="1032" type="line"/>
    </contour>
  </outline>
</glyph>
<glyph name="x" format="1">
  <advance width="1117"/>
  <unicode hex="0078"/>
  <outline>
    <contour>
      <point x="12" y="0" type="line"/>
      <point x="283" y="0" type="line"/>
      <point x="509" y="291" type="line"/>
      <point x="561" y="359" type="line"/>
      <point x="614" y="291" type="line"/>
      <point x="838" y="0" type="line"/>
      <point x="1107" y="0" type="line"/>
      <point x="695" y="516" type="line"/>
      <point x="1107" y="1032" type="line"/>
      <point x="838" y="1032" type="line"/>
      <point x="616" y="748" type="line"/>
      <point x="561" y="676" type="line"/>
      <point x="498" y="757" type="line"/>
      <point x="284" y="1032" type="line"/>
      <point x="12" y="1032" type="line"/>
      <point x="424" y="516" type="line"/>
    </contour>
  </outline>
</glyph>
<glyph name="y" format="1">
  <advance width="1051"/>
  <unicode hex="0079"/>
  <outline>
    <contour>
      <point x="253" y="-391" type="curve"/>
      <point x="491" y="-391" type="line"/>
      <point x="493" y="-393"/>
      <point x="576" y="-232"/>
      <point x="622" y="-102" type="curve"/>
      <point x="1069" y="1032" type="line"/>
      <point x="811" y="1032" type="line"/>
      <point x="533" y="243" type="line"/>
      <point x="237" y="1032" type="line"/>
      <point x="-8" y="1032" type="line"/>
      <point x="417" y="-36" type="line"/>
      <point x="365" y="-173"/>
      <point x="309" y="-289"/>
    </contour>
  </outline>
</glyph>
<glyph name="asciitilde" format="1">
  <advance width="1352"/>
  <unicode hex="007E"/>
  <outline>
    <contour>
      <point x="936" y="310" type="curve" smooth="yes"/>
      <point x="1163" y="310"/>
      <point x="1290" y="475"/>
      <point x="1305" y="800" type="curve"/>
      <point x="1088" y="845" type="line"/>
      <point x="1067" y="697"/>
      <point x="1065" y="549"/>
      <point x="932" y="549" type="curve" smooth="yes"/>
      <point x="742" y="549"/>
      <point x="611" y="842"/>
      <point x="408" y="842" type="curve" smooth="yes"/>
      <point x="194" y="842"/>
      <point x="62" y="682"/>
      <point x="47" y="350" type="curve"/>
      <point x="262" y="306" type="line"/>
      <point x="285" y="488"/>
      <point x="326" y="595"/>
      <point x="413" y="595" type="curve" smooth="yes"/>
      <point x="521" y="595"/>
      <point x="682" y="310"/>
    </contour>
  </outline>
</glyph>
<glyph name="yen" format="1">
  <advance width="1484"/>
  <unicode hex="00A5"/>
  <outline>
    <contour>
      <point x="618" y="0" type="line"/>
      <point x="858" y="0" type="line"/>
      <point x="858" y="372" type="line"/>
      <point x="1242" y="372" type="line"/>
      <point x="1242" y="512" type="line"/>
      <point x="858" y="512" type="line"/>
      <point x="858" y="653" type="line"/>
      <point x="1242" y="653" type="line"/>
      <point x="1242" y="781" type="line"/>
      <point x="938" y="781" type="line"/>
      <point x="1446" y="1481" type="line"/>
      <point x="1173" y="1481" type="line"/>
      <point x="746" y="853" type="line"/>
      <point x="314" y="1481" type="line"/>
      <point x="38" y="1481" type="line"/>
      <point x="531" y="781" type="line"/>
      <point x="190" y="781" type="line"/>
      <point x="190" y="653" type="line"/>
      <point x="618" y="653" type="line"/>
      <point x="618" y="512" type="line"/>
      <point x="190" y="512" type="line"/>
      <point x="190" y="372" type="line"/>
      <point x="618" y="372" type="line"/>
    </contour>
  </outline>
</glyph>
<glyph name="dieresis" format="1">
  <advance width="708"/>
  <unicode hex="00A8"/>
  <outline>
    <contour>
      <point x="90" y="1206" type="line"/>
      <point x="288" y="1206" type="line"/>
      <point x="288" y="1430" type="line"/>
      <point x="90" y="1430" type="line"/>
    </contour>
    <contour>
      <point x="420" y="1206" type="line"/>
      <point x="618" y="1206" type="line"/>
      <point x="618" y="1430" type="line"/>
      <point x="420" y="1430" type="line"/>
    </contour>
  </outline>
</glyph>
<glyph name="copyright" format="1">
  <advance width="1747"/>
  <unicode hex="00A9"/>
  <outline>
    <contour>
      <point x="901" y="222" type="curve" smooth="yes"/>
      <point x="1005" y="222"/>
      <point x="1105" y="253"/>
      <point x="1180" y="307" type="curve"/>
      <point x="1134" y="400" type="line"/>
      <point x="1134" y="400"/>
      <point x="1036" y="329"/>
      <point x="914" y="329" type="curve" smooth="yes"/>
      <point x="746" y="329"/>
      <point x="618" y="440"/>
      <point x="618" y="644" type="curve" smooth="yes"/>
      <point x="618" y="850"/>
      <point x="756" y="957"/>
      <point x="898" y="957" type="curve" smooth="yes"/>
      <point x="1006" y="957"/>
      <point x="1058" y="923"/>
      <point x="1133" y="879" type="curve"/>
      <point x="1174" y="968" type="line"/>
      <point x="1092" y="1028"/>
      <point x="994" y="1063"/>
      <point x="886" y="1063" type="curve" smooth="yes"/>
      <point x="646" y="1063"/>
      <point x="475" y="901"/>
      <point x="475" y="645" type="curve" smooth="yes"/>
      <point x="475" y="349"/>
      <point x="689" y="222"/>
    </contour>
    <contour>
      <point x="874" y="-2" type="curve" smooth="yes"/>
      <point x="529" y="-2"/>
      <point x="216" y="264"/>
      <point x="216" y="641" type="curve" smooth="yes"/>
      <point x="216" y="1003"/>
      <point x="514" y="1280"/>
      <point x="874" y="1280" type="curve" smooth="yes"/>
      <point x="1221" y="1280"/>
      <point x="1533" y="1017"/>
      <point x="1533" y="641" type="curve" smooth="yes"/>
      <point x="1533" y="270"/>
      <point x="1226" y="-2"/>
    </contour>
    <contour>
      <point x="874" y="-122" type="curve" smooth="yes"/>
      <point x="1313" y="-122"/>
      <point x="1670" y="223"/>
      <point x="1670" y="641" type="curve" smooth="yes"/>
      <point x="1670" y="1065"/>
      <point x="1302" y="1402"/>
      <point x="874" y="1402" type="curve" smooth="yes"/>
      <point x="435" y="1402"/>
      <point x="77" y="1059"/>
      <point x="77" y="641" type="curve" smooth="yes"/>
      <point x="77" y="199"/>
      <point x="451" y="-122"/>
    </contour>
  </outline>
</glyph>
<glyph name="ordfeminine" format="1">
  <advance width="797"/>
  <unicode hex="00AA"/>
  <outline>
    <contour>
      <point x="312" y="656" type="curve" smooth="yes"/>
      <point x="408" y="656"/>
      <point x="496" y="702"/>
      <point x="557" y="763" type="curve"/>
      <point x="559" y="763" type="line"/>
      <point x="559" y="670" type="line"/>
      <point x="713" y="670" type="line"/>
      <point x="713" y="1141" type="line" smooth="yes"/>
      <point x="713" y="1328"/>
      <point x="646" y="1430"/>
      <point x="409" y="1430" type="curve" smooth="yes"/>
      <point x="289" y="1430"/>
      <point x="173" y="1405"/>
      <point x="101" y="1369" type="curve"/>
      <point x="136" y="1240" type="line"/>
      <point x="212" y="1275"/>
      <point x="299" y="1292"/>
      <point x="401" y="1292" type="curve" smooth="yes"/>
      <point x="526" y="1292"/>
      <point x="559" y="1256"/>
      <point x="559" y="1137" type="curve"/>
      <point x="264" y="1137"/>
      <point x="77" y="1070"/>
      <point x="77" y="879" type="curve" smooth="yes"/>
      <point x="77" y="719"/>
      <point x="193" y="656"/>
    </contour>
    <contour>
      <point x="343" y="786" type="curve" smooth="yes"/>
      <point x="261" y="786"/>
      <point x="238" y="837"/>
      <point x="238" y="891" type="curve" smooth="yes"/>
      <point x="238" y="975"/>
      <point x="330" y="1020"/>
      <point x="559" y="1020" type="curve"/>
      <point x="559" y="883" type="line"/>
      <point x="538" y="845"/>
      <point x="442" y="786"/>
    </contour>
  </outline>
</glyph>
<glyph name="guillemotleft" format="1">
  <advance width="995"/>
  <unicode hex="00AB"/>
  <outline>
    <contour>
      <point x="493" y="134" type="line"/>
      <point x="493" y="409" type="line"/>
      <point x="417" y="471"/>
      <point x="296" y="584"/>
      <point x="296" y="584" type="curve"/>
      <point x="493" y="771" type="line"/>
      <point x="493" y="1048" type="line"/>
      <point x="31" y="635" type="line"/>
      <point x="31" y="533" type="line"/>
    </contour>
    <contour>
      <point x="958" y="134" type="line"/>
      <point x="958" y="409" type="line"/>
      <point x="882" y="471"/>
      <point x="760" y="584"/>
      <point x="760" y="584" type="curve"/>
      <point x="958" y="771" type="line"/>
      <point x="958" y="1048" type="line"/>
      <point x="495" y="635" type="line"/>
      <point x="495" y="533" type="line"/>
    </contour>
  </outline>
</glyph>
<glyph name="logicalnot" format="1">
  <advance width="1362"/>
  <unicode hex="00AC"/>
  <outline>
    <contour>
      <point x="1015" y="99" type="line"/>
      <point x="1273" y="99" type="line"/>
      <point x="1273" y="777" type="line"/>
      <point x="88" y="777" type="line"/>
      <point x="88" y="542" type="line"/>
      <point x="1015" y="542" type="line"/>
    </contour>
  </outline>
</glyph>
<glyph name="registered" format="1">
  <advance width="1747"/>
  <unicode hex="00AE"/>
  <outline>
    <contour>
      <point x="564" y="239" type="line"/>
      <point x="701" y="239" type="line"/>
      <point x="701" y="600" type="line"/>
      <point x="882" y="600" type="line"/>
      <point x="1122" y="239" type="line"/>
      <point x="1245" y="239" type="line"/>
      <point x="1245" y="280" type="line"/>
      <point x="1017" y="616" type="line"/>
      <point x="1133" y="635"/>
      <point x="1208" y="709"/>
      <point x="1208" y="842" type="curve" smooth="yes"/>
      <point x="1208" y="1047"/>
      <point x="1015" y="1082"/>
      <point x="843" y="1082" type="curve" smooth="yes"/>
      <point x="564" y="1082" type="line"/>
    </contour>
    <contour>
      <point x="701" y="701" type="line"/>
      <point x="701" y="979" type="line"/>
      <point x="847" y="979" type="line" smooth="yes"/>
      <point x="1048" y="979"/>
      <point x="1081" y="923"/>
      <point x="1081" y="834" type="curve" smooth="yes"/>
      <point x="1081" y="752"/>
      <point x="1022" y="701"/>
      <point x="907" y="701" type="curve" smooth="yes"/>
    </contour>
    <contour>
      <point x="874" y="-2" type="curve" smooth="yes"/>
      <point x="529" y="-2"/>
      <point x="216" y="264"/>
      <point x="216" y="641" type="curve" smooth="yes"/>
      <point x="216" y="1003"/>
      <point x="514" y="1280"/>
      <point x="874" y="1280" type="curve" smooth="yes"/>
      <point x="1221" y="1280"/>
      <point x="1533" y="1017"/>
      <point x="1533" y="641" type="curve" smooth="yes"/>
      <point x="1533" y="270"/>
      <point x="1226" y="-2"/>
    </contour>
    <contour>
      <point x="874" y="-122" type="curve" smooth="yes"/>
      <point x="1313" y="-122"/>
      <point x="1670" y="223"/>
      <point x="1670" y="641" type="curve" smooth="yes"/>
      <point x="1670" y="1065"/>
      <point x="1302" y="1402"/>
      <point x="874" y="1402" type="curve" smooth="yes"/>
      <point x="435" y="1402"/>
      <point x="77" y="1059"/>
      <point x="77" y="641" type="curve" smooth="yes"/>
      <point x="77" y="199"/>
      <point x="451" y="-122"/>
    </contour>
  </outline>
</glyph>
<glyph name="macron" format="1">
  <advance width="735"/>
  <unicode hex="00AF"/>
  <outline>
    <contour>
      <point x="90" y="1161" type="line"/>
      <point x="645" y="1161" type="line"/>
      <point x="645" y="1295" type="line"/>
      <point x="90" y="1295" type="line"/>
    </contour>
  </outline>
</glyph>
<glyph name="acute" format="1">
  <advance width="508"/>
  <unicode hex="00B4"/>
  <outline>
    <contour>
      <point x="32" y="1137" type="line"/>
      <point x="186" y="1137" type="line"/>
      <point x="479" y="1481" type="line"/>
      <point x="223" y="1481" type="line"/>
    </contour>
  </outline>
</glyph>
<glyph name="periodcentered" format="1">
  <advance width="496"/>
  <unicode hex="00B7"/>
  <outline>
    <contour>
      <point x="249" y="412" type="curve" smooth="yes"/>
      <point x="342" y="412"/>
      <point x="415" y="485"/>
      <point x="415" y="578" type="curve" smooth="yes"/>
      <point x="415" y="671"/>
      <point x="342" y="745"/>
      <point x="249" y="745" type="curve" smooth="yes"/>
      <point x="156" y="745"/>
      <point x="82" y="671"/>
      <point x="82" y="578" type="curve" smooth="yes"/>
      <point x="82" y="485"/>
      <point x="156" y="412"/>
    </contour>
  </outline>
</glyph>
<glyph name="ordmasculine" format="1">
  <advance width="902"/>
  <unicode hex="00BA"/>
  <outline>
    <contour>
      <point x="452" y="794" type="curve" smooth="yes"/>
      <point x="335" y="794"/>
      <point x="281" y="887"/>
      <point x="281" y="1039" type="curve" smooth="yes"/>
      <point x="281" y="1221"/>
      <point x="361" y="1281"/>
      <point x="452" y="1281" type="curve" smooth="yes"/>
      <point x="565" y="1281"/>
      <point x="623" y="1194"/>
      <point x="623" y="1039" type="curve" smooth="yes"/>
      <point x="623" y="903"/>
      <point x="567" y="794"/>
    </contour>
    <contour>
      <point x="452" y="646" type="curve" smooth="yes"/>
      <point x="689" y="646"/>
      <point x="820" y="785"/>
      <point x="820" y="1039" type="curve" smooth="yes"/>
      <point x="820" y="1298"/>
      <point x="689" y="1430"/>
      <point x="452" y="1430" type="curve" smooth="yes"/>
      <point x="215" y="1430"/>
      <point x="81" y="1298"/>
      <point x="81" y="1039" type="curve" smooth="yes"/>
      <point x="81" y="785"/>
      <point x="213" y="646"/>
    </contour>
  </outline>
</glyph>
<glyph name="onequarter" format="1">
  <advance width="1419"/>
  <unicode hex="00BC"/>
  <outline>
    <contour>
      <point x="1195.52" y="0" type="line"/>
      <point x="1304.52" y="0" type="line"/>
      <point x="1304.52" y="120" type="line"/>
      <point x="1390.52" y="120" type="line"/>
      <point x="1390.52" y="222" type="line"/>
      <point x="1304.52" y="222" type="line"/>
      <point x="1304.52" y="819" type="line"/>
      <point x="1133.52" y="819" type="line"/>
      <point x="785.516" y="222" type="line"/>
      <point x="785.516" y="120" type="line"/>
      <point x="1195.52" y="120" type="line"/>
    </contour>
    <contour>
      <point x="277.516" y="0" type="line"/>
      <point x="404.516" y="0" type="line"/>
      <point x="1236.52" y="1430" type="line"/>
      <point x="1107.52" y="1430" type="line"/>
    </contour>
    <contour>
      <point x="903.516" y="222" type="line"/>
      <point x="1195.52" y="728" type="line"/>
      <point x="1195.52" y="222" type="line"/>
    </contour>
    <component base="one.superior" xOffset="-89.4844"/>
  </outline>
</glyph>
<glyph name="threequarters" format="1">
  <advance width="1470"/>
  <unicode hex="00BE"/>
  <outline>
    <contour>
      <point x="1247.81" y="0" type="line"/>
      <point x="1356.81" y="0" type="line"/>
      <point x="1356.81" y="120" type="line"/>
      <point x="1443.81" y="120" type="line"/>
      <point x="1443.81" y="222" type="line"/>
      <point x="1356.81" y="222" type="line"/>
      <point x="1356.81" y="819" type="line"/>
      <point x="1185.81" y="819" type="line"/>
      <point x="838.808" y="222" type="line"/>
      <point x="838.808" y="120" type="line"/>
      <point x="1247.81" y="120" type="line"/>
    </contour>
    <contour>
      <point x="330.808" y="0" type="line"/>
      <point x="456.808" y="0" type="line"/>
      <point x="1289.81" y="1430" type="line"/>
      <point x="1161.81" y="1430" type="line"/>
    </contour>
    <contour>
      <point x="956.808" y="222" type="line"/>
      <point x="1247.81" y="728" type="line"/>
      <point x="1247.81" y="222" type="line"/>
    </contour>
    <component base="three.superior" xOffset="-7.19238"/>
  </outline>
</glyph>
<glyph name="AE" format="1">
  <advance width="1929"/>
  <unicode hex="00C6"/>
  <outline>
    <contour>
      <point x="66" y="0" type="line"/>
      <point x="318" y="0" type="line"/>
      <point x="505" y="333" type="line"/>
      <point x="1029" y="333" type="line"/>
      <point x="1029" y="0" type="line"/>
      <point x="1853" y="0" type="line"/>
      <point x="1853" y="181" type="line"/>
      <point x="1270" y="181" type="line"/>
      <point x="1270" y="663" type="line"/>
      <point x="1774" y="663" type="line"/>
      <point x="1774" y="844" type="line"/>
      <point x="1270" y="844" type="line"/>
      <point x="1270" y="1300" type="line"/>
      <point x="1854" y="1300" type="line"/>
      <point x="1854" y="1481" type="line"/>
      <point x="880" y="1481" type="line"/>
    </contour>
    <contour>
      <point x="594" y="515" type="line"/>
      <point x="1011" y="1300" type="line"/>
      <point x="1029" y="1300" type="line"/>
      <point x="1029" y="515" type="line"/>
    </contour>
  </outline>
</glyph>
<glyph name="Eth" format="1">
  <advance width="1212"/>
  <unicode hex="00D0"/>
  <outline>
    <contour>
      <point x="0" y="693" type="line"/>
      <point x="662" y="693" type="line"/>
      <point x="662" y="850" type="line"/>
      <point x="0" y="850" type="line"/>
    </contour>
    <component base="D"/>
  </outline>
</glyph>
<glyph name="multiply" format="1">
  <advance width="1037"/>
  <unicode hex="00D7"/>
  <outline>
    <contour>
      <point x="175" y="40" type="line"/>
      <point x="518" y="386" type="line"/>
      <point x="860" y="40" type="line"/>
      <point x="969" y="147" type="line"/>
      <point x="622" y="488" type="line"/>
      <point x="969" y="832" type="line"/>
      <point x="860" y="939" type="line"/>
      <point x="518" y="594" type="line"/>
      <point x="175" y="939" type="line"/>
      <point x="69" y="832" type="line"/>
      <point x="415" y="488" type="line"/>
      <point x="69" y="147" type="line"/>
    </contour>
  </outline>
</glyph>
<glyph name="Oslash" format="1">
  <advance width="1551"/>
  <unicode hex="00D8"/>
  <outline>
    <contour>
      <point x="777" y="-23" type="curve" smooth="yes"/>
      <point x="1238" y="-23"/>
      <point x="1453" y="273"/>
      <point x="1453" y="740" type="curve" smooth="yes"/>
      <point x="1453" y="973"/>
      <point x="1401" y="1163"/>
      <point x="1291" y="1294" type="curve"/>
      <point x="1435" y="1481" type="line"/>
      <point x="1240" y="1481" type="line"/>
      <point x="1175" y="1398" type="line"/>
      <point x="1073" y="1467"/>
      <point x="940" y="1503"/>
      <point x="777" y="1503" type="curve" smooth="yes"/>
      <point x="317" y="1503"/>
      <point x="99" y="1211"/>
      <point x="99" y="740" type="curve" smooth="yes"/>
      <point x="99" y="515"/>
      <point x="149" y="331"/>
      <point x="253" y="200" type="curve"/>
      <point x="99" y="2" type="line"/>
      <point x="293" y="2" type="line"/>
      <point x="363" y="94" type="line"/>
      <point x="468" y="18"/>
      <point x="605" y="-23"/>
    </contour>
    <contour>
      <point x="398" y="390" type="line"/>
      <point x="355" y="490"/>
      <point x="339" y="613"/>
      <point x="339" y="740" type="curve" smooth="yes"/>
      <point x="339" y="1041"/>
      <point x="422" y="1324"/>
      <point x="777" y="1324" type="curve" smooth="yes"/>
      <point x="896" y="1324"/>
      <point x="983" y="1289"/>
      <point x="1049" y="1233" type="curve"/>
    </contour>
    <contour>
      <point x="777" y="158" type="curve" smooth="yes"/>
      <point x="649" y="158"/>
      <point x="556" y="195"/>
      <point x="490" y="257" type="curve"/>
      <point x="1144" y="1106" type="line"/>
      <point x="1194" y="1002"/>
      <point x="1213" y="871"/>
      <point x="1213" y="740" type="curve" smooth="yes"/>
      <point x="1213" y="451"/>
      <point x="1124" y="158"/>
    </contour>
  </outline>
</glyph>
<glyph name="oslash" format="1">
  <advance width="1159"/>
  <unicode hex="00F8"/>
  <outline>
    <contour>
      <point x="75" y="-49" type="line"/>
      <point x="216" y="-49" type="line"/>
      <point x="294" y="49" type="line"/>
      <point x="376" y="0"/>
      <point x="474" y="-23"/>
      <point x="579" y="-23" type="curve" smooth="yes"/>
      <point x="865" y="-23"/>
      <point x="1093" y="143"/>
      <point x="1093" y="519" type="curve" smooth="yes"/>
      <point x="1093" y="687"/>
      <point x="1048" y="811"/>
      <point x="973" y="898" type="curve"/>
      <point x="1103" y="1062" type="line"/>
      <point x="962" y="1062" type="line"/>
      <point x="891" y="972" type="line"/>
      <point x="804" y="1031"/>
      <point x="696" y="1059"/>
      <point x="579" y="1059" type="curve" smooth="yes"/>
      <point x="305" y="1059"/>
      <point x="69" y="899"/>
      <point x="69" y="520" type="curve" smooth="yes"/>
      <point x="69" y="339"/>
      <point x="121" y="207"/>
      <point x="207" y="118" type="curve"/>
    </contour>
    <contour>
      <point x="348" y="293" type="line"/>
      <point x="319" y="349"/>
      <point x="304" y="424"/>
      <point x="304" y="518" type="curve" smooth="yes"/>
      <point x="304" y="771"/>
      <point x="420" y="877"/>
      <point x="579" y="877" type="curve" smooth="yes"/>
      <point x="655" y="877"/>
      <point x="718" y="857"/>
      <point x="764" y="814" type="curve"/>
    </contour>
    <contour>
      <point x="582" y="159" type="curve" smooth="yes"/>
      <point x="519" y="159"/>
      <point x="464" y="175"/>
      <point x="420" y="207" type="curve"/>
      <point x="828" y="717" type="line"/>
      <point x="848" y="664"/>
      <point x="858" y="598"/>
      <point x="858" y="516" type="curve" smooth="yes"/>
      <point x="858" y="283"/>
      <point x="769" y="159"/>
    </contour>
  </outline>
</glyph>
<glyph name="dotlessi" format="1">
  <advance width="493"/>
  <unicode hex="0131"/>
  <outline>
    <contour>
      <point x="120" y="0" type="line"/>
      <point x="361" y="0" type="line"/>
      <point x="361" y="1032" type="line"/>
      <point x="120" y="1032" type="line"/>
    </contour>
  </outline>
</glyph>
<glyph name="Lslash" format="1">
  <advance width="1146"/>
  <unicode hex="0141"/>
  <outline>
    <contour>
      <point x="204" y="0" type="line"/>
      <point x="1108" y="0" type="line"/>
      <point x="1108" y="181" type="line"/>
      <point x="445" y="181" type="line"/>
      <point x="445" y="667" type="line"/>
      <point x="712" y="861" type="line"/>
      <point x="712" y="1033" type="line"/>
      <point x="445" y="840" type="line"/>
      <point x="445" y="1481" type="line"/>
      <point x="204" y="1481" type="line"/>
      <point x="204" y="666" type="line"/>
      <point x="65" y="565" type="line"/>
      <point x="65" y="392" type="line"/>
      <point x="204" y="493" type="line"/>
    </contour>
  </outline>
</glyph>
<glyph name="lslash" format="1">
  <advance width="585"/>
  <unicode hex="0142"/>
  <outline>
    <contour>
      <point x="470" y="-6" type="curve" smooth="yes"/>
      <point x="552" y="-6" type="line"/>
      <point x="552" y="174" type="line"/>
      <point x="417" y="174"/>
      <point x="355" y="172"/>
      <point x="355" y="301" type="curve" smooth="yes"/>
      <point x="355" y="780" type="line"/>
      <point x="516" y="888" type="line"/>
      <point x="516" y="1032" type="line"/>
      <point x="355" y="923" type="line"/>
      <point x="354" y="1430" type="line"/>
      <point x="115" y="1430" type="line"/>
      <point x="115" y="760" type="line"/>
      <point x="0" y="681" type="line"/>
      <point x="0" y="537" type="line"/>
      <point x="115" y="616" type="line"/>
      <point x="115" y="348" type="line" smooth="yes"/>
      <point x="115" y="196"/>
      <point x="78" y="-6"/>
    </contour>
  </outline>
</glyph>
<glyph name="OE" format="1">
  <advance width="1987"/>
  <unicode hex="0152"/>
  <outline>
    <contour>
      <point x="696" y="0" type="curve" smooth="yes"/>
      <point x="1805" y="0" type="line"/>
      <point x="1805" y="179" type="line"/>
      <point x="1192" y="179" type="line"/>
      <point x="1192" y="694" type="line"/>
      <point x="1725" y="694" type="line"/>
      <point x="1725" y="875" type="line"/>
      <point x="1192" y="875" type="line"/>
      <point x="1192" y="1299" type="line"/>
      <point x="1805" y="1299" type="line"/>
      <point x="1805" y="1481" type="line"/>
      <point x="668" y="1481" type="line" smooth="yes"/>
      <point x="250" y="1481"/>
      <point x="62" y="1152"/>
      <point x="62" y="753" type="curve" smooth="yes"/>
      <point x="62" y="379"/>
      <point x="183" y="0"/>
    </contour>
    <contour>
      <point x="691" y="179" type="line" smooth="yes"/>
      <point x="385" y="179"/>
      <point x="301" y="435"/>
      <point x="301" y="751" type="curve" smooth="yes"/>
      <point x="301" y="1076"/>
      <point x="401" y="1299"/>
      <point x="695" y="1299" type="curve" smooth="yes"/>
      <point x="950" y="1299" type="line"/>
      <point x="950" y="179" type="line"/>
    </contour>
  </outline>
</glyph>
<glyph name="florin" format="1">
  <advance width="1170"/>
  <unicode hex="0192"/>
  <outline>
    <contour>
      <point x="241" y="-319" type="curve" smooth="yes"/>
      <point x="476" y="-319"/>
      <point x="580" y="-196"/>
      <point x="638" y="185" type="curve"/>
      <point x="668" y="374"/>
      <point x="694" y="533"/>
      <point x="720" y="698" type="curve"/>
      <point x="979" y="698" type="line"/>
      <point x="1005" y="833" type="line"/>
      <point x="740" y="833" type="line"/>
      <point x="748" y="879"/>
      <point x="755" y="927"/>
      <point x="763" y="976" type="curve" smooth="yes"/>
      <point x="798" y="1197"/>
      <point x="826" y="1287"/>
      <point x="943" y="1287" type="curve" smooth="yes"/>
      <point x="978" y="1287"/>
      <point x="1009" y="1276"/>
      <point x="1039" y="1261" type="curve"/>
      <point x="1079" y="1459" type="line"/>
      <point x="1044" y="1473"/>
      <point x="990" y="1483"/>
      <point x="928" y="1483" type="curve" smooth="yes"/>
      <point x="714" y="1483"/>
      <point x="565" y="1341"/>
      <point x="525" y="1080" type="curve" smooth="yes"/>
      <point x="512" y="993"/>
      <point x="498" y="910"/>
      <point x="486" y="833" type="curve"/>
      <point x="275" y="833" type="line"/>
      <point x="250" y="698" type="line"/>
      <point x="465" y="698" type="line"/>
      <point x="435" y="511"/>
      <point x="408" y="332"/>
      <point x="373" y="105" type="curve" smooth="yes"/>
      <point x="347" y="-69"/>
      <point x="298" y="-117"/>
      <point x="216" y="-117" type="curve" smooth="yes"/>
      <point x="183" y="-117"/>
      <point x="148" y="-108"/>
      <point x="117" y="-93" type="curve"/>
      <point x="76" y="-291" type="line"/>
      <point x="115" y="-306"/>
      <point x="174" y="-319"/>
    </contour>
  </outline>
</glyph>
<glyph name="uni0237" format="1">
  <advance width="552"/>
  <unicode hex="0237"/>
  <outline>
    <contour>
      <point x="104" y="-379" type="curve" smooth="yes"/>
      <point x="334" y="-379"/>
      <point x="421" y="-228"/>
      <point x="421" y="-8" type="curve" smooth="yes"/>
      <point x="421" y="1037" type="line"/>
      <point x="181" y="1037" type="line"/>
      <point x="181" y="18" type="line" smooth="yes"/>
      <point x="181" y="-185"/>
      <point x="117" y="-204"/>
      <point x="15" y="-204" type="curve" smooth="yes"/>
      <point x="-16" y="-204"/>
      <point x="-35" y="-203"/>
      <point x="-71" y="-200" type="curve"/>
      <point x="-71" y="-371" type="line"/>
      <point x="-39" y="-374"/>
      <point x="0" y="-379"/>
    </contour>
  </outline>
</glyph>
<glyph name="circumflex" format="1">
  <advance width="876"/>
  <unicode hex="02C6"/>
  <outline>
    <contour>
      <point x="69" y="1167" type="line"/>
      <point x="269" y="1167" type="line"/>
      <point x="435" y="1372" type="line"/>
      <point x="610" y="1167" type="line"/>
      <point x="806" y="1167" type="line"/>
      <point x="518" y="1509" type="line"/>
      <point x="356" y="1509" type="line"/>
    </contour>
  </outline>
</glyph>
<glyph name="dotaccent" format="1">
  <advance width="548"/>
  <unicode hex="02D9"/>
  <outline>
    <contour>
      <point x="140.576" y="141" type="curve" smooth="yes"/>
      <point x="233.576" y="141"/>
      <point x="306.576" y="214"/>
      <point x="306.576" y="307" type="curve" smooth="yes"/>
      <point x="306.576" y="400"/>
      <point x="233.576" y="474"/>
      <point x="140.576" y="474" type="curve" smooth="yes"/>
      <point x="47.576" y="474"/>
      <point x="-26.424" y="400"/>
      <point x="-26.424" y="307" type="curve" smooth="yes"/>
      <point x="-26.424" y="214"/>
      <point x="47.576" y="141"/>
    </contour>
  </outline>
</glyph>
<glyph name="ring" format="1">
  <advance width="915"/>
  <unicode hex="02DA"/>
  <outline>
    <contour>
      <point x="458" y="238" type="curve" smooth="yes"/>
      <point x="357" y="238"/>
      <point x="274" y="319"/>
      <point x="274" y="424" type="curve" smooth="yes"/>
      <point x="274" y="525"/>
      <point x="357" y="611"/>
      <point x="458" y="611" type="curve" smooth="yes"/>
      <point x="559" y="611"/>
      <point x="641" y="525"/>
      <point x="641" y="424" type="curve" smooth="yes"/>
      <point x="641" y="321"/>
      <point x="560" y="238"/>
    </contour>
    <contour>
      <point x="458" y="141" type="curve" smooth="yes"/>
      <point x="617" y="141"/>
      <point x="746" y="265"/>
      <point x="746" y="424" type="curve" smooth="yes"/>
      <point x="746" y="581"/>
      <point x="617" y="707"/>
      <point x="458" y="707" type="curve" smooth="yes"/>
      <point x="300" y="707"/>
      <point x="169" y="583"/>
      <point x="169" y="424" type="curve" smooth="yes"/>
      <point x="169" y="266"/>
      <point x="299" y="141"/>
    </contour>
  </outline>
</glyph>
<glyph name="ogonek" format="1">
  <advance width="545"/>
  <unicode hex="02DB"/>
  <outline>
    <contour>
      <point x="289.379" y="-405" type="curve"/>
      <point x="351.379" y="-410"/>
      <point x="418.379" y="-399"/>
      <point x="482.379" y="-376" type="curve"/>
      <point x="471.379" y="-244" type="line"/>
      <point x="448.379" y="-252"/>
      <point x="408.379" y="-272"/>
      <point x="352.379" y="-272" type="curve" smooth="yes"/>
      <point x="275.379" y="-272"/>
      <point x="231.379" y="-222"/>
      <point x="234.379" y="-139" type="curve"/>
      <point x="239.379" y="-93"/>
      <point x="262.379" y="-40"/>
      <point x="298.379" y="5" type="curve"/>
      <point x="154.379" y="5" type="line"/>
      <point x="104.379" y="-52"/>
      <point x="58.3789" y="-131"/>
      <point x="68.3789" y="-233" type="curve"/>
      <point x="84.3789" y="-333"/>
      <point x="172.379" y="-405"/>
    </contour>
  </outline>
</glyph>
<glyph name="tilde" format="1">
  <advance width="945"/>
  <unicode hex="02DC"/>
  <outline>
    <contour>
      <point x="680.818" y="211" type="curve" smooth="yes"/>
      <point x="828.112" y="211"/>
      <point x="866.995" y="276.572"/>
      <point x="872.629" y="526" type="curve"/>
      <point x="705.74" y="526" type="line"/>
      <point x="703.59" y="428.996"/>
      <point x="683.438" y="382.718"/>
      <point x="634.035" y="382.718" type="curve" smooth="yes"/>
      <point x="561.167" y="382.718"/>
      <point x="365.87" y="526.197"/>
      <point x="274.206" y="526" type="curve" smooth="yes"/>
      <point x="146.485" y="526"/>
      <point x="74.0576" y="441"/>
      <point x="70" y="211" type="curve"/>
      <point x="234.963" y="211" type="line"/>
      <point x="236.123" y="302.744"/>
      <point x="252.919" y="347.078"/>
      <point x="299.137" y="347.078" type="curve" smooth="yes"/>
      <point x="387.534" y="347.078"/>
      <point x="557.413" y="210.858"/>
    </contour>
  </outline>
</glyph>
<glyph name="Delta" format="1">
  <advance width="1147"/>
  <unicode hex="0394"/>
  <outline>
    <contour>
      <point x="77" y="0" type="line"/>
      <point x="1070" y="0" type="line"/>
      <point x="1070" y="123" type="line"/>
      <point x="688" y="1372" type="line"/>
      <point x="471" y="1372" type="line"/>
      <point x="77" y="120" type="line"/>
    </contour>
    <contour>
      <point x="266" y="158" type="line"/>
      <point x="266" y="158"/>
      <point x="556" y="1056"/>
      <point x="572" y="1133" type="curve"/>
      <point x="576" y="1133" type="line"/>
      <point x="593" y="1044"/>
      <point x="876" y="158"/>
      <point x="876" y="158" type="curve"/>
    </contour>
  </outline>
</glyph>
<glyph name="endash" format="1">
  <advance width="1457"/>
  <unicode hex="2013"/>
  <outline>
    <contour>
      <point x="90" y="467" type="line"/>
      <point x="1367" y="467" type="line"/>
      <point x="1367" y="713" type="line"/>
      <point x="90" y="713" type="line"/>
    </contour>
  </outline>
</glyph>
<glyph name="quoteleft" format="1">
  <advance width="390"/>
  <unicode hex="2018"/>
  <outline>
    <contour>
      <point x="206" y="995" type="line"/>
      <point x="358" y="995" type="line"/>
      <point x="259" y="1481" type="line"/>
      <point x="31" y="1481" type="line"/>
    </contour>
  </outline>
</glyph>
<glyph name="bullet" format="1">
  <advance width="1061"/>
  <unicode hex="2022"/>
  <outline>
    <contour>
      <point x="530" y="214" type="curve" smooth="yes"/>
      <point x="786" y="214"/>
      <point x="982" y="406"/>
      <point x="982" y="653" type="curve" smooth="yes"/>
      <point x="982" y="897"/>
      <point x="788" y="1092"/>
      <point x="530" y="1092" type="curve" smooth="yes"/>
      <point x="277" y="1092"/>
      <point x="79" y="897"/>
      <point x="79" y="653" type="curve" smooth="yes"/>
      <point x="79" y="407"/>
      <point x="274" y="214"/>
    </contour>
  </outline>
</glyph>
<glyph name="perthousand" format="1">
  <advance width="2311"/>
  <unicode hex="2030"/>
  <outline>
    <contour>
      <point x="278" y="853" type="curve" smooth="yes"/>
      <point x="187" y="853"/>
      <point x="183" y="931"/>
      <point x="183" y="1035" type="curve" smooth="yes"/>
      <point x="183" y="1156"/>
      <point x="189" y="1229"/>
      <point x="278" y="1229" type="curve" smooth="yes"/>
      <point x="364" y="1229"/>
      <point x="377" y="1159"/>
      <point x="377" y="1048" type="curve"/>
      <point x="375" y="912"/>
      <point x="358" y="853"/>
    </contour>
    <contour>
      <point x="278" y="685" type="curve" smooth="yes"/>
      <point x="498" y="685"/>
      <point x="598" y="804"/>
      <point x="598" y="1065" type="curve" smooth="yes"/>
      <point x="598" y="1286"/>
      <point x="482" y="1394"/>
      <point x="278" y="1394" type="curve" smooth="yes"/>
      <point x="61" y="1394"/>
      <point x="-45" y="1278"/>
      <point x="-45" y="1016" type="curve" smooth="yes"/>
      <point x="-45" y="789"/>
      <point x="74" y="685"/>
    </contour>
    <contour>
      <point x="278" y="0" type="line"/>
      <point x="519" y="0" type="line"/>
      <point x="1250" y="1391" type="line"/>
      <point x="1009" y="1391" type="line"/>
    </contour>
    <contour>
      <point x="1264" y="164" type="curve" smooth="yes"/>
      <point x="1173" y="164"/>
      <point x="1167" y="241"/>
      <point x="1167" y="346" type="curve" smooth="yes"/>
      <point x="1167" y="467"/>
      <point x="1175" y="542"/>
      <point x="1264" y="542" type="curve" smooth="yes"/>
      <point x="1351" y="542"/>
      <point x="1361" y="470"/>
      <point x="1361" y="359" type="curve"/>
      <point x="1359" y="223"/>
      <point x="1344" y="164"/>
    </contour>
    <contour>
      <point x="1264" y="-3" type="curve" smooth="yes"/>
      <point x="1485" y="-3"/>
      <point x="1585" y="115"/>
      <point x="1585" y="377" type="curve" smooth="yes"/>
      <point x="1585" y="598"/>
      <point x="1468" y="707"/>
      <point x="1264" y="707" type="curve" smooth="yes"/>
      <point x="1047" y="707"/>
      <point x="940" y="590"/>
      <point x="940" y="328" type="curve" smooth="yes"/>
      <point x="940" y="101"/>
      <point x="1060" y="-3"/>
    </contour>
    <contour>
      <point x="2037" y="164" type="curve" smooth="yes"/>
      <point x="1946" y="164"/>
      <point x="1940" y="242"/>
      <point x="1940" y="346" type="curve" smooth="yes"/>
      <point x="1940" y="467"/>
      <point x="1948" y="542"/>
      <point x="2037" y="542" type="curve" smooth="yes"/>
      <point x="2124" y="542"/>
      <point x="2134" y="470"/>
      <point x="2134" y="359" type="curve"/>
      <point x="2132" y="223"/>
      <point x="2117" y="164"/>
    </contour>
    <contour>
      <point x="2037" y="-3" type="curve" smooth="yes"/>
      <point x="2258" y="-3"/>
      <point x="2356" y="115"/>
      <point x="2356" y="377" type="curve" smooth="yes"/>
      <point x="2356" y="598"/>
      <point x="2241" y="707"/>
      <point x="2037" y="707" type="curve" smooth="yes"/>
      <point x="1820" y="707"/>
      <point x="1713" y="590"/>
      <point x="1713" y="328" type="curve" smooth="yes"/>
      <point x="1713" y="101"/>
      <point x="1833" y="-3"/>
    </contour>
  </outline>
</glyph>
<glyph name="guilsinglleft" format="1">
  <advance width="503"/>
  <unicode hex="2039"/>
  <outline>
    <contour>
      <point x="496" y="134" type="curve"/>
      <point x="496" y="409" type="line"/>
      <point x="420" y="471"/>
      <point x="349" y="529"/>
      <point x="272" y="589" type="curve"/>
      <point x="496" y="771" type="line"/>
      <point x="496" y="1048" type="line"/>
      <point x="496" y="1048"/>
      <point x="100" y="719"/>
      <point x="-4" y="635" type="curve"/>
      <point x="-4" y="533" type="line"/>
      <point x="98" y="457"/>
      <point x="496" y="134"/>
    </contour>
  </outline>
</glyph>
<glyph name="guilsinglright" format="1">
  <advance width="503"/>
  <unicode hex="203A"/>
  <outline>
    <contour>
      <point x="8" y="134" type="line"/>
      <point x="8" y="134"/>
      <point x="404" y="462"/>
      <point x="508" y="546" type="curve"/>
      <point x="508" y="648" type="line"/>
      <point x="406" y="724"/>
      <point x="8" y="1048"/>
      <point x="8" y="1048" type="curve"/>
      <point x="8" y="772" type="line"/>
      <point x="84" y="710"/>
      <point x="155" y="649"/>
      <point x="232" y="589" type="curve"/>
      <point x="8" y="410" type="line"/>
    </contour>
  </outline>
</glyph>
<glyph name="uni2206" format="1">
  <advance width="1100"/>
  <unicode hex="2206"/>
  <outline>
    <contour>
      <point x="81" y="540" type="line"/>
      <point x="1019" y="540" type="line"/>
      <point x="1019" y="674" type="line"/>
      <point x="616" y="1376" type="line"/>
      <point x="488" y="1376" type="line"/>
      <point x="83" y="672" type="line"/>
    </contour>
    <contour>
      <point x="831" y="671" type="line"/>
      <point x="273" y="673" type="line"/>
      <point x="553" y="1170" type="line"/>
    </contour>
  </outline>
</glyph>
<glyph name="product" format="1">
  <advance width="1296"/>
  <unicode hex="220F"/>
  <outline>
    <contour>
      <point x="90" y="-267" type="line"/>
      <point x="331" y="-267" type="line"/>
      <point x="331" y="1203" type="line"/>
      <point x="966" y="1203" type="line"/>
      <point x="966" y="-267" type="line"/>
      <point x="1206" y="-267" type="line"/>
      <point x="1206" y="1430" type="line"/>
      <point x="90" y="1430" type="line"/>
    </contour>
  </outline>
</glyph>
<glyph name="summation" format="1">
  <advance width="1184"/>
  <unicode hex="2211"/>
  <outline>
    <contour>
      <point x="81" y="0" type="line"/>
      <point x="1102" y="0" type="line"/>
      <point x="1102" y="195" type="line"/>
      <point x="361" y="195" type="line"/>
      <point x="868" y="797" type="line"/>
      <point x="394" y="1302" type="line"/>
      <point x="1072" y="1302" type="line"/>
      <point x="1072" y="1481" type="line"/>
      <point x="102" y="1481" type="line"/>
      <point x="102" y="1318" type="line"/>
      <point x="592" y="791" type="line"/>
      <point x="81" y="191" type="line"/>
    </contour>
  </outline>
</glyph>
<glyph name="radical" format="1">
  <advance width="949"/>
  <unicode hex="221A"/>
  <outline>
    <contour>
      <point x="426" y="-100" type="line"/>
      <point x="609" y="-100" type="line"/>
      <point x="1005" y="1493" type="line"/>
      <point x="833" y="1493" type="line"/>
      <point x="742" y="1117"/>
      <point x="647" y="743"/>
      <point x="556" y="369" type="curve"/>
      <point x="512" y="186" type="line"/>
      <point x="490" y="229"/>
      <point x="468" y="304"/>
      <point x="449" y="360" type="curve"/>
      <point x="280" y="815" type="line"/>
      <point x="-44" y="775" type="line"/>
      <point x="-33" y="633" type="line"/>
      <point x="130" y="651" type="line"/>
    </contour>
  </outline>
</glyph>
<glyph name="infinity" format="1">
  <advance width="1517"/>
  <unicode hex="221E"/>
  <outline>
    <contour>
      <point x="1103" y="203" type="curve" smooth="yes"/>
      <point x="1286" y="203"/>
      <point x="1437" y="353"/>
      <point x="1437" y="552" type="curve" smooth="yes"/>
      <point x="1437" y="759"/>
      <point x="1301" y="897"/>
      <point x="1108" y="899" type="curve"/>
      <point x="960" y="899"/>
      <point x="850" y="810"/>
      <point x="761" y="681" type="curve"/>
      <point x="670" y="823"/>
      <point x="558" y="905"/>
      <point x="416" y="905" type="curve" smooth="yes"/>
      <point x="227" y="905"/>
      <point x="80" y="751"/>
      <point x="80" y="559" type="curve" smooth="yes"/>
      <point x="80" y="351"/>
      <point x="223" y="209"/>
      <point x="412" y="209" type="curve" smooth="yes"/>
      <point x="554" y="209"/>
      <point x="664" y="292"/>
      <point x="759" y="430" type="curve"/>
      <point x="861" y="274"/>
      <point x="972" y="203"/>
    </contour>
    <contour>
      <point x="434" y="376" type="curve" smooth="yes"/>
      <point x="330" y="376"/>
      <point x="260" y="452"/>
      <point x="260" y="556" type="curve" smooth="yes"/>
      <point x="260" y="661"/>
      <point x="327" y="742"/>
      <point x="431" y="742" type="curve" smooth="yes"/>
      <point x="529" y="742"/>
      <point x="602" y="670"/>
      <point x="674" y="555" type="curve"/>
      <point x="603" y="447"/>
      <point x="528" y="376"/>
    </contour>
    <contour>
      <point x="1088" y="369" type="curve" smooth="yes"/>
      <point x="999" y="369"/>
      <point x="928" y="427"/>
      <point x="845" y="552" type="curve"/>
      <point x="911" y="654"/>
      <point x="992" y="736"/>
      <point x="1086" y="736" type="curve" smooth="yes"/>
      <point x="1188" y="736"/>
      <point x="1257" y="659"/>
      <point x="1257" y="551" type="curve" smooth="yes"/>
      <point x="1257" y="454"/>
      <point x="1190" y="369"/>
    </contour>
  </outline>
</glyph>
<glyph name="integral" format="1">
  <advance width="626"/>
  <unicode hex="222B"/>
  <outline>
    <contour>
      <point x="90" y="-410" type="curve" smooth="yes"/>
      <point x="346" y="-410"/>
      <point x="436" y="-288"/>
      <point x="436" y="106" type="curve" smooth="yes"/>
      <point x="436" y="1011" type="line" smooth="yes"/>
      <point x="436" y="1238"/>
      <point x="452" y="1327"/>
      <point x="576" y="1327" type="curve" smooth="yes"/>
      <point x="607" y="1327"/>
      <point x="638" y="1318"/>
      <point x="668" y="1305" type="curve"/>
      <point x="676" y="1503" type="line"/>
      <point x="643" y="1515"/>
      <point x="598" y="1522"/>
      <point x="543" y="1522" type="curve" smooth="yes"/>
      <point x="318" y="1522"/>
      <point x="184" y="1375"/>
      <point x="184" y="1106" type="curve" smooth="yes"/>
      <point x="184" y="18" type="line" smooth="yes"/>
      <point x="184" y="-160"/>
      <point x="142" y="-210"/>
      <point x="56" y="-210" type="curve" smooth="yes"/>
      <point x="25" y="-210"/>
      <point x="-9" y="-202"/>
      <point x="-40" y="-189" type="curve"/>
      <point x="-49" y="-387" type="line"/>
      <point x="-14" y="-399"/>
      <point x="33" y="-410"/>
    </contour>
  </outline>
</glyph>
<glyph name="lessequal" format="1">
  <advance width="1071"/>
  <unicode hex="2264"/>
  <outline>
    <contour>
      <point x="974" y="220" type="line"/>
      <point x="974" y="412" type="line"/>
      <point x="312" y="681" type="line"/>
      <point x="974" y="961" type="line"/>
      <point x="974" y="1154" type="line"/>
      <point x="99" y="756" type="line"/>
      <point x="99" y="607" type="line"/>
    </contour>
    <contour>
      <point x="83" y="2" type="line"/>
      <point x="987" y="2" type="line"/>
      <point x="987" y="168" type="line"/>
      <point x="83" y="168" type="line"/>
    </contour>
  </outline>
</glyph>
<glyph name="lozenge" format="1">
  <advance width="1051"/>
  <unicode hex="25CA"/>
  <outline>
    <contour>
      <point x="457" y="-30" type="line"/>
      <point x="587" y="-30" type="line"/>
      <point x="993" y="674" type="line"/>
      <point x="590" y="1376" type="line"/>
      <point x="462" y="1376" type="line"/>
      <point x="57" y="672" type="line"/>
    </contour>
    <contour>
      <point x="522" y="177" type="line"/>
      <point x="247" y="674" type="line"/>
      <point x="527" y="1170" type="line"/>
      <point x="805" y="671" type="line"/>
    </contour>
  </outline>
</glyph>
<glyph name="f_i" format="1">
  <advance width="1209"/>
  <outline>
    <contour>
      <point x="189" y="0" type="line"/>
      <point x="429" y="0" type="line"/>
      <point x="429" y="871" type="line"/>
      <point x="828" y="871" type="line"/>
      <point x="828" y="0" type="line"/>
      <point x="1069" y="0" type="line"/>
      <point x="1069" y="1037" type="line"/>
      <point x="420" y="1037" type="line"/>
      <point x="420" y="1236"/>
      <point x="459" y="1268"/>
      <point x="587" y="1268" type="curve" smooth="yes"/>
      <point x="643" y="1268"/>
      <point x="717" y="1256"/>
      <point x="717" y="1256" type="curve"/>
      <point x="717" y="1430" type="line"/>
      <point x="662" y="1436"/>
      <point x="613" y="1442"/>
      <point x="540" y="1442" type="curve" smooth="yes"/>
      <point x="273" y="1442"/>
      <point x="189" y="1326"/>
      <point x="189" y="1075" type="curve" smooth="yes"/>
      <point x="189" y="1037" type="line"/>
      <point x="23" y="1037" type="line"/>
      <point x="23" y="871" type="line"/>
      <point x="189" y="871" type="line"/>
    </contour>
    <contour>
      <point x="949" y="1149" type="curve" smooth="yes"/>
      <point x="1047" y="1149"/>
      <point x="1095" y="1220"/>
      <point x="1095" y="1289" type="curve" smooth="yes"/>
      <point x="1095" y="1360"/>
      <point x="1046" y="1430"/>
      <point x="949" y="1430" type="curve" smooth="yes"/>
      <point x="850" y="1430"/>
      <point x="801" y="1361"/>
      <point x="801" y="1289" type="curve" smooth="yes"/>
      <point x="801" y="1220"/>
      <point x="851" y="1149"/>
    </contour>
  </outline>
</glyph>
